<svg width="200" height="250" viewBox="0 0 200 250" fill="none" xmlns="http://www.w3.org/2000/svg">
<rect width="200" height="250" rx="20" fill="#172959"/>
<rect x="0.15" y="0.15" width="199.7" height="249.7" rx="19.85" stroke="black" stroke-opacity="0.5" stroke-width="0.3"/>
<rect x="26" y="75" width="150" height="1" fill="#172959"/>
<path d="M25.48 134.524H35.524V135.784H25.48V134.524ZM29.704 133.48H31.288V135.112H29.704V133.48ZM29.704 128.992H31.288V130.624H29.704V128.992ZM29.608 130.696H31.012V130.912C31.012 132.592 29.404 133.78 26.368 133.984L25.9 132.784C28.576 132.628 29.608 131.752 29.608 130.912V130.696ZM29.98 130.696H31.384V130.912C31.384 131.752 32.416 132.628 35.092 132.784L34.624 133.984C31.588 133.78 29.98 132.592 29.98 130.912V130.696ZM26.44 129.952H34.564V131.188H26.44V129.952ZM30.484 136.3C32.908 136.3 34.336 136.972 34.336 138.184C34.336 139.408 32.908 140.068 30.484 140.068C28.06 140.068 26.62 139.408 26.62 138.184C26.62 136.972 28.06 136.3 30.484 136.3ZM30.484 137.476C28.972 137.476 28.24 137.68 28.24 138.184C28.24 138.676 28.972 138.892 30.484 138.892C31.984 138.892 32.728 138.676 32.728 138.184C32.728 137.68 31.984 137.476 30.484 137.476ZM38.4631 132.028H39.6631V132.316C39.6631 134.62 38.9911 136.936 37.2151 137.956L36.3151 136.756C37.8991 135.832 38.4631 134.02 38.4631 132.316V132.028ZM38.7751 132.028H39.9751V132.316C39.9751 133.984 40.5511 135.676 42.1231 136.516L41.2591 137.692C39.4591 136.756 38.7751 134.584 38.7751 132.316V132.028ZM36.6871 130.828H41.7391V132.112H36.6871V130.828ZM38.4631 129.328H39.9751V131.86H38.4631V129.328ZM44.6311 128.956H46.1431V140.068H44.6311V128.956ZM43.2991 133.216H45.1471V134.512H43.2991V133.216ZM42.2431 129.124H43.7311V139.564H42.2431V129.124ZM47.5581 135.172H57.6261V136.444H47.5581V135.172ZM51.7581 135.988H53.3421V140.068H51.7581V135.988ZM48.7221 129.496H56.4261V133.984H48.7221V129.496ZM54.8541 130.756H50.2941V132.724H54.8541V130.756ZM31.0057 146.364V158H28.5455V148.699H28.4773L25.8125 150.369V148.188L28.6932 146.364H31.0057ZM40.7481 148.192H44.3001V149.904H40.7481V148.192ZM35.7721 154.064H45.8681V159.44H43.7401V155.728H35.7721V154.064ZM43.7401 144.608H45.8681V153.376H43.7401V144.608ZM37.5641 145.376C39.7721 145.376 41.4681 146.912 41.4681 149.04C41.4681 151.184 39.7721 152.72 37.5641 152.72C35.3401 152.72 33.6441 151.184 33.6441 149.04C33.6441 146.912 35.3401 145.376 37.5641 145.376ZM37.5641 147.184C36.4921 147.184 35.6761 147.872 35.6761 149.04C35.6761 150.224 36.4921 150.912 37.5641 150.912C38.6201 150.912 39.4361 150.224 39.4361 149.04C39.4361 147.872 38.6201 147.184 37.5641 147.184ZM52.1932 158V156.227L56.3352 152.392C56.6875 152.051 56.983 151.744 57.2216 151.472C57.464 151.199 57.6477 150.932 57.7727 150.67C57.8977 150.405 57.9602 150.119 57.9602 149.812C57.9602 149.472 57.8826 149.178 57.7273 148.932C57.572 148.682 57.3598 148.491 57.0909 148.358C56.822 148.222 56.517 148.153 56.1761 148.153C55.8201 148.153 55.5095 148.225 55.2443 148.369C54.9792 148.513 54.7746 148.72 54.6307 148.989C54.4867 149.258 54.4148 149.578 54.4148 149.949H52.0795C52.0795 149.187 52.2519 148.527 52.5966 147.966C52.9413 147.405 53.4242 146.972 54.0455 146.665C54.6667 146.358 55.3826 146.205 56.1932 146.205C57.0265 146.205 57.7519 146.352 58.3693 146.648C58.9905 146.939 59.4735 147.345 59.8182 147.864C60.1629 148.383 60.3352 148.977 60.3352 149.648C60.3352 150.087 60.2481 150.521 60.0739 150.949C59.9034 151.377 59.5985 151.852 59.1591 152.375C58.7197 152.894 58.1004 153.517 57.3011 154.244L55.6023 155.909V155.989H60.4886V158H52.1932ZM65.2961 147.504H67.0241V148.08C67.0241 150.784 65.7121 153.2 62.8961 154.08L61.8721 152.416C64.2721 151.664 65.2961 149.872 65.2961 148.08V147.504ZM65.6801 147.504H67.4241V148.08C67.4241 149.744 68.4641 151.456 70.8641 152.176L69.8401 153.84C67.0401 153.008 65.6801 150.672 65.6801 148.08V147.504ZM62.3841 146.352H70.3361V148.016H62.3841V146.352ZM65.2961 144.72H67.4241V146.976H65.2961V144.72ZM69.8721 148.912H73.3121V150.656H69.8721V148.912ZM72.2401 144.624H74.3681V155.584H72.2401V144.624ZM64.5921 157.472H74.7041V159.168H64.5921V157.472ZM64.5921 154.672H66.7201V158.592H64.5921V154.672ZM77.1189 145.824H84.1749V152.976H77.1189V145.824ZM82.0789 147.504H79.2149V151.296H82.0789V147.504ZM86.2229 144.608H88.3509V155.408H86.2229V144.608ZM87.7429 148.88H90.3189V150.624H87.7429V148.88ZM78.7989 157.472H88.8789V159.168H78.7989V157.472ZM78.7989 154.352H80.9269V158.32H78.7989V154.352ZM97.2173 157.455L96.5611 156.807L99.2628 154.105H92.2656V153.168H99.2628L96.5611 150.474L97.2173 149.818L101.036 153.636L97.2173 157.455ZM109.391 158.119C109.033 158.114 108.675 158.045 108.317 157.915C107.959 157.784 107.632 157.564 107.337 157.254C107.042 156.942 106.804 156.52 106.625 155.989C106.446 155.455 106.357 154.784 106.357 153.977C106.357 153.205 106.429 152.52 106.574 151.923C106.719 151.324 106.929 150.82 107.205 150.411C107.48 149.999 107.813 149.686 108.202 149.473C108.594 149.26 109.036 149.153 109.527 149.153C110.016 149.153 110.451 149.251 110.831 149.447C111.215 149.641 111.527 149.911 111.769 150.257C112.01 150.604 112.167 151.003 112.238 151.455H111.198C111.101 151.062 110.914 150.737 110.635 150.479C110.357 150.22 109.988 150.091 109.527 150.091C108.851 150.091 108.319 150.385 107.929 150.973C107.543 151.561 107.348 152.386 107.346 153.449H107.414C107.573 153.207 107.762 153.001 107.98 152.831C108.202 152.658 108.446 152.524 108.713 152.43C108.98 152.337 109.263 152.29 109.561 152.29C110.061 152.29 110.519 152.415 110.934 152.665C111.348 152.912 111.681 153.254 111.931 153.692C112.181 154.126 112.306 154.625 112.306 155.188C112.306 155.727 112.185 156.222 111.944 156.67C111.702 157.116 111.363 157.472 110.925 157.736C110.49 157.997 109.979 158.125 109.391 158.119ZM109.391 157.182C109.749 157.182 110.07 157.092 110.354 156.913C110.641 156.734 110.867 156.494 111.032 156.193C111.199 155.892 111.283 155.557 111.283 155.188C111.283 154.827 111.202 154.499 111.04 154.203C110.881 153.905 110.661 153.668 110.38 153.491C110.101 153.315 109.783 153.227 109.425 153.227C109.155 153.227 108.904 153.281 108.671 153.389C108.438 153.494 108.233 153.639 108.057 153.824C107.884 154.009 107.748 154.22 107.648 154.459C107.549 154.695 107.499 154.943 107.499 155.205C107.499 155.551 107.58 155.875 107.742 156.176C107.907 156.477 108.131 156.72 108.415 156.905C108.702 157.089 109.027 157.182 109.391 157.182ZM116.378 150.128H117.194V150.668C117.194 152.624 116.006 154.232 114.194 154.868L113.702 154.088C115.31 153.536 116.378 152.192 116.378 150.668V150.128ZM116.546 150.128H117.374V150.668C117.374 152.108 118.478 153.38 120.086 153.884L119.594 154.676C117.782 154.076 116.546 152.54 116.546 150.668V150.128ZM113.978 149.54H119.762V150.344H113.978V149.54ZM116.378 148.16H117.374V149.84H116.378V148.16ZM119.402 151.424H122.138V152.252H119.402V151.424ZM121.598 148.1H122.594V156.188H121.598V148.1ZM115.67 157.88H122.894V158.696H115.67V157.88ZM115.67 155.468H116.666V158.324H115.67V155.468ZM128.668 158L132.572 150.278V150.21H128.072V149.273H133.663V150.261L129.776 158H128.668ZM135.428 148.784H136.364V150.488H138.68V148.784H139.628V153.836H135.428V148.784ZM136.364 151.28V153.032H138.68V151.28H136.364ZM143.132 148.1H144.08V154.604H143.132V148.1ZM141.38 150.908H143.432V151.736H141.38V150.908ZM140.804 148.292H141.752V154.544H140.804V148.292ZM136.808 155.252H144.08V158.936H143.096V156.068H136.808V155.252ZM146.431 149.06H151.411V154.088H146.431V149.06ZM150.439 149.864H147.403V153.284H150.439V149.864ZM153.403 148.076H154.399V156.032H153.403V148.076ZM154.087 151.388H156.007V152.216H154.087V151.388ZM147.643 157.88H154.891V158.696H147.643V157.88ZM147.643 155.276H148.639V158.228H147.643V155.276Z" fill="white"/>
<path d="M25 152.761H32.8281V153.852H25V152.761ZM32.8281 152.8H47.5469V153.6H32.8281V152.8ZM47.5469 152.761H61.3281V153.852H47.5469V152.761ZM61.3281 152.8H90.7656V153.6H61.3281V152.8Z" fill="white"/>
<path d="M71.4926 19.216H75.7486V37.2H71.4926V19.216ZM74.5646 26.16H79.6846V29.648H74.5646V26.16ZM66.0846 37.744C72.2606 37.744 76.1006 39.792 76.1006 43.312C76.1006 46.832 72.2606 48.848 66.0846 48.848C59.9086 48.848 56.0366 46.832 56.0366 43.312C56.0366 39.792 59.9086 37.744 66.0846 37.744ZM66.0846 40.976C62.2766 40.976 60.2926 41.744 60.2926 43.312C60.2926 44.88 62.2766 45.648 66.0846 45.648C69.8926 45.648 71.8766 44.88 71.8766 43.312C71.8766 41.744 69.8926 40.976 66.0846 40.976ZM53.5086 32.4H55.9726C61.7326 32.4 65.1246 32.272 68.9966 31.6L69.4446 34.928C65.4766 35.632 61.8926 35.76 55.9726 35.76H53.5086V32.4ZM53.5086 21.104H67.4286V24.496H57.7646V33.712H53.5086V21.104ZM56.4526 26.768H66.7886V30.032H56.4526V26.768ZM100.93 19.216H105.186V35.728H100.93V19.216ZM104.002 25.648H109.122V29.136H104.002V25.648ZM92.4181 20.912H96.9621C96.9621 28.784 92.0341 34.128 83.2021 36.432L81.5381 33.072C88.8021 31.248 92.4181 27.472 92.4181 23.024V20.912ZM82.9461 20.912H94.9781V24.272H82.9461V20.912ZM85.9541 36.912H105.186V48.528H85.9541V36.912ZM100.994 40.272H90.1461V45.168H100.994V40.272ZM111.296 32.304H138.144V35.408H111.296V32.304ZM114.304 37.104H134.944V44.144H118.592V46.672H114.368V41.456H130.752V39.984H114.304V37.104ZM114.368 45.776H135.776V48.656H114.368V45.776ZM114.592 19.696H134.88V26.672H118.848V29.104H114.624V23.984H130.688V22.544H114.592V19.696ZM114.624 28.112H135.424V30.992H114.624V28.112ZM117.888 33.36H122.112V38.928H117.888V33.36ZM127.328 33.36H131.552V38.928H127.328V33.36Z" fill="white"/>
<path d="M68.4528 88.8864V84.0426L80.5977 64.9091H84.7738V71.6136H82.3022L74.646 83.7301V83.9574H91.9045V88.8864H68.4528ZM82.4158 94V87.4091L82.5295 85.2642V64.9091H88.2965V94H82.4158ZM106.855 94.3977C104.667 94.3977 102.721 94.0426 101.017 93.3324C99.3216 92.6127 97.9911 91.6326 97.0252 90.392C96.0593 89.1515 95.5763 87.7453 95.5763 86.1733C95.5763 84.9612 95.851 83.8485 96.4002 82.8352C96.9589 81.8125 97.7165 80.965 98.6729 80.2926C99.6294 79.6108 100.699 79.1752 101.883 78.9858V78.7869C100.33 78.4744 99.0707 77.7216 98.1048 76.5284C97.1388 75.3258 96.6559 73.929 96.6559 72.3381C96.6559 70.8324 97.0962 69.4924 97.9769 68.3182C98.8576 67.1345 100.065 66.2064 101.599 65.5341C103.143 64.8523 104.895 64.5114 106.855 64.5114C108.815 64.5114 110.562 64.8523 112.096 65.5341C113.64 66.2159 114.852 67.1487 115.733 68.3324C116.613 69.5066 117.058 70.8419 117.068 72.3381C117.058 73.9384 116.566 75.3352 115.591 76.5284C114.615 77.7216 113.365 78.4744 111.841 78.7869V78.9858C113.005 79.1752 114.061 79.6108 115.008 80.2926C115.965 80.965 116.722 81.8125 117.281 82.8352C117.849 83.8485 118.138 84.9612 118.147 86.1733C118.138 87.7453 117.65 89.1515 116.684 90.392C115.718 91.6326 114.383 92.6127 112.679 93.3324C110.984 94.0426 109.042 94.3977 106.855 94.3977ZM106.855 89.8807C107.83 89.8807 108.682 89.7055 109.412 89.3551C110.141 88.9953 110.709 88.5028 111.116 87.8778C111.533 87.2434 111.741 86.5142 111.741 85.6903C111.741 84.8475 111.528 84.1042 111.102 83.4602C110.676 82.8068 110.098 82.2955 109.369 81.9261C108.64 81.5473 107.802 81.358 106.855 81.358C105.917 81.358 105.079 81.5473 104.341 81.9261C103.602 82.2955 103.02 82.8068 102.593 83.4602C102.177 84.1042 101.968 84.8475 101.968 85.6903C101.968 86.5142 102.172 87.2434 102.579 87.8778C102.986 88.5028 103.559 88.9953 104.298 89.3551C105.037 89.7055 105.889 89.8807 106.855 89.8807ZM106.855 76.8835C107.669 76.8835 108.394 76.7178 109.028 76.3864C109.663 76.0549 110.16 75.5956 110.52 75.0085C110.879 74.4214 111.059 73.7443 111.059 72.9773C111.059 72.2197 110.879 71.5568 110.52 70.9886C110.16 70.411 109.667 69.9612 109.042 69.6392C108.417 69.3078 107.688 69.142 106.855 69.142C106.031 69.142 105.302 69.3078 104.667 69.6392C104.033 69.9612 103.536 70.411 103.176 70.9886C102.825 71.5568 102.65 72.2197 102.65 72.9773C102.65 73.7443 102.83 74.4214 103.19 75.0085C103.55 75.5956 104.047 76.0549 104.681 76.3864C105.316 76.7178 106.04 76.8835 106.855 76.8835ZM126.334 92.0909V91.554C126.334 91.1828 126.41 90.843 126.563 90.5348C126.719 90.2232 126.944 89.9747 127.239 89.7891C127.537 89.6001 127.899 89.5057 128.323 89.5057C128.754 89.5057 129.115 89.6001 129.407 89.7891C129.698 89.9747 129.919 90.2232 130.068 90.5348C130.217 90.843 130.292 91.1828 130.292 91.554V92.0909C130.292 92.4621 130.215 92.8035 130.063 93.1151C129.914 93.4233 129.692 93.6719 129.397 93.8608C129.105 94.0464 128.747 94.1392 128.323 94.1392C127.892 94.1392 127.529 94.0464 127.234 93.8608C126.939 93.6719 126.715 93.4233 126.563 93.1151C126.41 92.8035 126.334 92.4621 126.334 92.0909ZM127.348 91.554V92.0909C127.348 92.3991 127.421 92.6759 127.567 92.9212C127.713 93.1631 127.965 93.2841 128.323 93.2841C128.671 93.2841 128.916 93.1631 129.059 92.9212C129.204 92.6759 129.277 92.3991 129.277 92.0909V91.554C129.277 91.2457 129.208 90.9706 129.069 90.7287C128.929 90.4834 128.681 90.3608 128.323 90.3608C127.975 90.3608 127.725 90.4834 127.572 90.7287C127.423 90.9706 127.348 91.2457 127.348 91.554ZM121.263 86.2642V85.7273C121.263 85.3561 121.339 85.0163 121.492 84.7081C121.648 84.3965 121.873 84.148 122.168 83.9624C122.466 83.7734 122.828 83.679 123.252 83.679C123.683 83.679 124.044 83.7734 124.336 83.9624C124.627 84.148 124.848 84.3965 124.997 84.7081C125.146 85.0163 125.221 85.3561 125.221 85.7273V86.2642C125.221 86.6354 125.144 86.9768 124.992 87.2884C124.843 87.5966 124.621 87.8452 124.326 88.0341C124.034 88.2197 123.676 88.3125 123.252 88.3125C122.821 88.3125 122.458 88.2197 122.163 88.0341C121.868 87.8452 121.644 87.5966 121.492 87.2884C121.339 86.9768 121.263 86.6354 121.263 86.2642ZM122.277 85.7273V86.2642C122.277 86.5724 122.35 86.8492 122.496 87.0945C122.642 87.3364 122.894 87.4574 123.252 87.4574C123.6 87.4574 123.845 87.3364 123.988 87.0945C124.133 86.8492 124.206 86.5724 124.206 86.2642V85.7273C124.206 85.419 124.137 85.1439 123.998 84.902C123.858 84.6567 123.61 84.5341 123.252 84.5341C122.904 84.5341 122.654 84.6567 122.501 84.902C122.352 85.1439 122.277 85.419 122.277 85.7273ZM121.641 94L128.641 83.8182H129.775L122.775 94H121.641Z" fill="#FFB900"/>
<path d="M133.976 227.708H135.236V228.956C135.236 231.464 134.18 234.02 132.14 234.98L131.24 233.72C133.076 232.856 133.976 230.78 133.976 228.956V227.708ZM134.312 227.708H135.572V228.956C135.572 230.636 136.436 232.604 138.26 233.444L137.384 234.704C135.344 233.756 134.312 231.32 134.312 228.956V227.708ZM131.672 227.024H137.768V228.332H131.672V227.024ZM138.584 225.956H140.192V237.068H138.584V225.956ZM139.832 230.192H141.8V231.512H139.832V230.192ZM146.899 229.688H148.735V230.984H146.899V229.688ZM144.523 226.916H145.747V228.788C145.747 231.308 145.051 233.768 143.275 234.86L142.315 233.66C143.947 232.652 144.523 230.672 144.523 228.788V226.916ZM144.871 226.916H146.071V228.716C146.071 230.528 146.539 232.376 148.051 233.36L147.187 234.608C145.423 233.516 144.871 231.116 144.871 228.716V226.916ZM150.547 225.956H152.071V237.068H150.547V225.956ZM148.291 226.124H149.779V236.564H148.291V226.124ZM161.178 225.956H162.786V237.068H161.178V225.956ZM153.798 227.624H160.374V228.884H153.798V227.624ZM157.098 229.496C158.742 229.496 159.954 230.6 159.954 232.148C159.954 233.696 158.742 234.8 157.098 234.8C155.454 234.8 154.254 233.696 154.254 232.148C154.254 230.6 155.454 229.496 157.098 229.496ZM157.098 230.792C156.33 230.792 155.778 231.296 155.778 232.148C155.778 233 156.33 233.504 157.098 233.504C157.866 233.504 158.418 233 158.418 232.148C158.418 231.296 157.866 230.792 157.098 230.792ZM156.282 226.112H157.89V228.404H156.282V226.112ZM164.609 234.488H174.665V235.784H164.609V234.488ZM168.821 232.112H170.417V234.8H168.821V232.112ZM165.665 226.664H167.249V228.368H171.989V226.664H173.573V232.448H165.665V226.664ZM167.249 229.616V231.176H171.989V229.616H167.249ZM183.292 225.956H184.9V237.068H183.292V225.956ZM180.016 227.108H181.6C181.6 230.504 180.448 233.288 176.5 235.196L175.672 233.924C178.864 232.388 180.016 230.372 180.016 227.396V227.108ZM176.26 227.108H180.772V228.368H176.26V227.108Z" fill="white"/>
<path d="M30.4943 187.139C29.8381 187.139 29.2531 187.027 28.7393 186.801C28.2289 186.576 27.8229 186.263 27.5213 185.862C27.223 185.457 27.0606 184.988 27.0341 184.455H28.2869C28.3134 184.783 28.4261 185.066 28.625 185.305C28.8239 185.54 29.084 185.722 29.4055 185.852C29.727 185.981 30.0833 186.045 30.4744 186.045C30.9119 186.045 31.2997 185.969 31.6378 185.817C31.9759 185.664 32.241 185.452 32.4332 185.18C32.6255 184.909 32.7216 184.594 32.7216 184.236C32.7216 183.861 32.6288 183.531 32.4432 183.246C32.2576 182.958 31.9858 182.733 31.6278 182.57C31.2699 182.408 30.8324 182.327 30.3153 182.327H29.5V181.233H30.3153C30.7197 181.233 31.0743 181.16 31.3793 181.014C31.6875 180.868 31.9278 180.663 32.1001 180.398C32.2758 180.133 32.3636 179.821 32.3636 179.463C32.3636 179.118 32.2874 178.818 32.1349 178.563C31.9825 178.308 31.767 178.109 31.4886 177.967C31.2135 177.824 30.8887 177.753 30.5142 177.753C30.1629 177.753 29.8314 177.817 29.5199 177.947C29.2116 178.073 28.9598 178.257 28.7642 178.499C28.5687 178.737 28.4626 179.026 28.446 179.364H27.2528C27.2727 178.83 27.4335 178.363 27.7351 177.962C28.0367 177.557 28.4311 177.242 28.9183 177.017C29.4089 176.792 29.9474 176.679 30.5341 176.679C31.1638 176.679 31.7041 176.807 32.1548 177.062C32.6056 177.314 32.9519 177.647 33.1939 178.061C33.4358 178.475 33.5568 178.923 33.5568 179.403C33.5568 179.977 33.406 180.466 33.1044 180.87C32.8061 181.274 32.4001 181.554 31.8864 181.71V181.79C32.5294 181.896 33.0315 182.169 33.3928 182.61C33.754 183.048 33.9347 183.589 33.9347 184.236C33.9347 184.789 33.7839 185.286 33.4822 185.727C33.1839 186.165 32.7763 186.509 32.2592 186.761C31.7422 187.013 31.1539 187.139 30.4943 187.139ZM39.4084 187.139C38.7521 187.139 38.1671 187.027 37.6534 186.801C37.143 186.576 36.737 186.263 36.4354 185.862C36.1371 185.457 35.9747 184.988 35.9482 184.455H37.201C37.2275 184.783 37.3402 185.066 37.5391 185.305C37.7379 185.54 37.9981 185.722 38.3196 185.852C38.6411 185.981 38.9974 186.045 39.3885 186.045C39.826 186.045 40.2138 185.969 40.5518 185.817C40.8899 185.664 41.1551 185.452 41.3473 185.18C41.5395 184.909 41.6357 184.594 41.6357 184.236C41.6357 183.861 41.5429 183.531 41.3572 183.246C41.1716 182.958 40.8999 182.733 40.5419 182.57C40.1839 182.408 39.7464 182.327 39.2294 182.327H38.4141V181.233H39.2294C39.6338 181.233 39.9884 181.16 40.2933 181.014C40.6016 180.868 40.8419 180.663 41.0142 180.398C41.1899 180.133 41.2777 179.821 41.2777 179.463C41.2777 179.118 41.2015 178.818 41.049 178.563C40.8965 178.308 40.6811 178.109 40.4027 177.967C40.1276 177.824 39.8028 177.753 39.4283 177.753C39.0769 177.753 38.7455 177.817 38.4339 177.947C38.1257 178.073 37.8738 178.257 37.6783 178.499C37.4827 178.737 37.3767 179.026 37.3601 179.364H36.1669C36.1868 178.83 36.3475 178.363 36.6491 177.962C36.9508 177.557 37.3452 177.242 37.8324 177.017C38.3229 176.792 38.8615 176.679 39.4482 176.679C40.0779 176.679 40.6181 176.807 41.0689 177.062C41.5196 177.314 41.866 177.647 42.108 178.061C42.3499 178.475 42.4709 178.923 42.4709 179.403C42.4709 179.977 42.3201 180.466 42.0185 180.87C41.7202 181.274 41.3142 181.554 40.8004 181.71V181.79C41.4434 181.896 41.9455 182.169 42.3068 182.61C42.6681 183.048 42.8487 183.589 42.8487 184.236C42.8487 184.789 42.6979 185.286 42.3963 185.727C42.098 186.165 41.6903 186.509 41.1733 186.761C40.6563 187.013 40.0679 187.139 39.4084 187.139ZM49.5121 179.958H51.9341V180.924H49.5121V179.958ZM47.1461 176.626H48.0561V179.034C48.0561 181.68 46.9501 184.242 45.1021 185.376L44.3741 184.494C46.1101 183.472 47.1461 181.204 47.1461 179.034V176.626ZM47.3701 176.626H48.2661V178.992C48.2661 181.022 49.2181 183.178 50.8841 184.186L50.2121 185.096C48.3921 183.976 47.3701 181.456 47.3701 178.992V176.626ZM54.1601 175.436H55.2801V188.092H54.1601V175.436ZM51.5981 175.702H52.6901V187.462H51.5981V175.702ZM65.3178 176.341L62.0366 188.531H60.9627L64.244 176.341H65.3178ZM73.6323 176.738H74.5983V177.746C74.5983 180.07 73.1703 182.016 71.0423 182.772L70.4403 181.862C72.3443 181.19 73.6323 179.538 73.6323 177.746V176.738ZM73.8563 176.738H74.8223V177.746C74.8223 179.454 76.1383 180.994 78.0143 181.624L77.4123 182.534C75.3123 181.82 73.8563 179.958 73.8563 177.746V176.738ZM79.4703 175.436H80.6463V183.094H79.4703V175.436ZM72.1903 183.766H80.6463V188.092H79.4703V184.718H72.1903V183.766ZM70.7483 176.318H77.6783V177.256H70.7483V176.318ZM86.2592 176.794H87.2112V177.816C87.2112 180.14 85.8112 182.086 83.6832 182.856L83.0952 181.932C84.9992 181.26 86.2592 179.622 86.2592 177.816V176.794ZM86.4692 176.794H87.4212V177.802C87.4212 179.454 88.6252 180.938 90.4872 181.554L89.9272 182.464C87.8132 181.764 86.4692 179.958 86.4692 177.802V176.794ZM83.4452 176.374H90.2072V177.326H83.4452V176.374ZM91.8032 175.436H92.9652V183.066H91.8032V175.436ZM92.6432 178.642H94.8412V179.622H92.6432V178.642ZM88.9332 183.402C91.5092 183.402 93.0912 184.256 93.0912 185.726C93.0912 187.21 91.5092 188.064 88.9332 188.064C86.3572 188.064 84.7752 187.21 84.7752 185.726C84.7752 184.256 86.3572 183.402 88.9332 183.402ZM88.9332 184.34C87.0572 184.34 85.9092 184.844 85.9092 185.726C85.9092 186.622 87.0572 187.154 88.9332 187.154C90.8092 187.154 91.9572 186.622 91.9572 185.726C91.9572 184.844 90.8092 184.34 88.9332 184.34ZM105.228 175.45H106.404V184.69H105.228V175.45ZM98.2701 186.86H106.782V187.812H98.2701V186.86ZM98.2701 183.738H99.4181V187.182H98.2701V183.738ZM99.6141 176.318C101.504 176.318 102.904 177.606 102.904 179.44C102.904 181.26 101.504 182.562 99.6141 182.562C97.7241 182.562 96.3101 181.26 96.3101 179.44C96.3101 177.606 97.7241 176.318 99.6141 176.318ZM99.6141 177.326C98.3821 177.326 97.4441 178.194 97.4441 179.44C97.4441 180.672 98.3821 181.54 99.6141 181.54C100.846 181.54 101.784 180.672 101.784 179.44C101.784 178.194 100.846 177.326 99.6141 177.326ZM30.088 197.672H31.25V199.926H30.088V197.672ZM35.898 192.436H37.06V199.884H35.898V192.436ZM26.798 198.064L26.658 197.196C29.094 197.196 32.188 197.182 34.89 196.874L34.96 197.63C32.188 198.036 29.164 198.064 26.798 198.064ZM28.576 200.346H37.06V202.978H29.738V204.406H28.604V202.208H35.912V201.186H28.576V200.346ZM28.604 204.112H37.48V204.952H28.604V204.112ZM33.378 198.456H36.262V199.212H33.378V198.456ZM30.746 192.674C32.622 192.674 33.854 193.402 33.854 194.578C33.854 195.754 32.622 196.482 30.746 196.482C28.856 196.482 27.624 195.754 27.624 194.578C27.624 193.402 28.856 192.674 30.746 192.674ZM30.746 193.486C29.5 193.486 28.702 193.906 28.702 194.578C28.702 195.25 29.5 195.67 30.746 195.67C31.964 195.67 32.762 195.25 32.762 194.578C32.762 193.906 31.964 193.486 30.746 193.486ZM43.5164 202.488H54.9824V203.454H43.5164V202.488ZM48.6124 199.422H49.7604V202.81H48.6124V199.422ZM48.5844 193.276H49.5924V194.256C49.5924 196.958 47.0024 199.044 44.4544 199.576L43.9644 198.61C46.1904 198.204 48.5844 196.342 48.5844 194.256V193.276ZM48.7944 193.276H49.8024V194.256C49.8024 196.356 52.2104 198.204 54.4364 198.61L53.9324 199.576C51.3844 199.044 48.7944 196.958 48.7944 194.256V193.276ZM56.3953 198.596H67.8333V199.534H56.3953V198.596ZM57.6553 201.046H66.4333V205.162H65.2713V201.998H57.6553V201.046ZM57.8373 196.258H66.5173V197.196H57.8373V196.258ZM57.8373 192.912H66.4053V193.864H58.9993V196.734H57.8373V192.912ZM73.3271 201.912V200.898L77.8015 193.818H78.5373V195.389H78.0401L74.6594 200.739V200.818H80.685V201.912H73.3271ZM78.1197 204V201.604V201.131V193.818H79.293V204H78.1197ZM85.8095 204.139C85.1267 204.139 84.5235 204.018 83.9998 203.776C83.4795 203.531 83.0734 203.195 82.7818 202.767C82.4901 202.336 82.3459 201.846 82.3493 201.295C82.3459 200.865 82.4305 200.467 82.6028 200.102C82.7752 199.734 83.0105 199.428 83.3088 199.183C83.6104 198.934 83.9468 198.777 84.318 198.71V198.651C83.8308 198.525 83.443 198.251 83.1547 197.83C82.8663 197.406 82.7238 196.924 82.7271 196.384C82.7238 195.866 82.8547 195.404 83.1199 194.996C83.385 194.589 83.7496 194.267 84.2136 194.032C84.6809 193.797 85.2129 193.679 85.8095 193.679C86.3994 193.679 86.9264 193.797 87.3904 194.032C87.8545 194.267 88.219 194.589 88.4842 194.996C88.7527 195.404 88.8886 195.866 88.8919 196.384C88.8886 196.924 88.7411 197.406 88.4494 197.83C88.161 198.251 87.7782 198.525 87.301 198.651V198.71C87.6689 198.777 88.0003 198.934 88.2953 199.183C88.5903 199.428 88.8256 199.734 89.0012 200.102C89.1769 200.467 89.2664 200.865 89.2697 201.295C89.2664 201.846 89.1172 202.336 88.8223 202.767C88.5306 203.195 88.1246 203.531 87.6042 203.776C87.0872 204.018 86.4889 204.139 85.8095 204.139ZM85.8095 203.045C86.2702 203.045 86.6679 202.971 87.0027 202.822C87.3374 202.673 87.5959 202.462 87.7782 202.19C87.9605 201.919 88.0533 201.6 88.0566 201.236C88.0533 200.851 87.9539 200.512 87.7583 200.217C87.5628 199.922 87.296 199.69 86.9579 199.521C86.6232 199.352 86.2404 199.267 85.8095 199.267C85.3753 199.267 84.9875 199.352 84.6461 199.521C84.3081 199.69 84.0413 199.922 83.8457 200.217C83.6535 200.512 83.559 200.851 83.5623 201.236C83.559 201.6 83.6468 201.919 83.8258 202.19C84.0081 202.462 84.2683 202.673 84.6064 202.822C84.9444 202.971 85.3455 203.045 85.8095 203.045ZM85.8095 198.213C86.1741 198.213 86.4972 198.14 86.7789 197.994C87.064 197.848 87.2877 197.645 87.4501 197.383C87.6125 197.121 87.6954 196.814 87.6987 196.463C87.6954 196.118 87.6142 195.818 87.4551 195.563C87.296 195.305 87.0756 195.106 86.7939 194.967C86.5121 194.824 86.184 194.753 85.8095 194.753C85.4283 194.753 85.0952 194.824 84.8102 194.967C84.5252 195.106 84.3047 195.305 84.149 195.563C83.9932 195.818 83.917 196.118 83.9203 196.463C83.917 196.814 83.9949 197.121 84.1539 197.383C84.3163 197.645 84.5401 197.848 84.8251 197.994C85.1101 198.14 85.4383 198.213 85.8095 198.213ZM94.4961 204.139C93.747 204.139 93.109 203.935 92.582 203.528C92.055 203.117 91.6523 202.522 91.3739 201.743C91.0955 200.961 90.9563 200.016 90.9563 198.909C90.9563 197.809 91.0955 196.869 91.3739 196.09C91.6557 195.308 92.06 194.711 92.587 194.3C93.1173 193.886 93.7537 193.679 94.4961 193.679C95.2385 193.679 95.8732 193.886 96.4002 194.3C96.9305 194.711 97.3349 195.308 97.6133 196.09C97.895 196.869 98.0359 197.809 98.0359 198.909C98.0359 200.016 97.8967 200.961 97.6183 201.743C97.3398 202.522 96.9371 203.117 96.4102 203.528C95.8832 203.935 95.2451 204.139 94.4961 204.139ZM94.4961 203.045C95.2385 203.045 95.8152 202.687 96.2262 201.972C96.6372 201.256 96.8427 200.235 96.8427 198.909C96.8427 198.027 96.7482 197.277 96.5593 196.657C96.3737 196.037 96.1052 195.565 95.7539 195.24C95.4059 194.915 94.9866 194.753 94.4961 194.753C93.7603 194.753 93.1853 195.116 92.771 195.842C92.3567 196.564 92.1495 197.587 92.1495 198.909C92.1495 199.791 92.2423 200.54 92.4279 201.156C92.6135 201.773 92.8803 202.242 93.2283 202.563C93.5797 202.885 94.0022 203.045 94.4961 203.045ZM100.089 193.57H105.899V199.436H100.089V193.57ZM104.765 194.508H101.223V198.498H104.765V194.508ZM108.223 192.422H109.385V201.704H108.223V192.422ZM109.021 196.286H111.261V197.252H109.021V196.286ZM101.503 203.86H109.959V204.812H101.503V203.86ZM101.503 200.822H102.665V204.266H101.503V200.822Z" fill="white"/>
<rect x="25" y="110" width="155" height="1" fill="white"/>
</svg>
