<svg width="200" height="250" viewBox="0 0 200 250" fill="none" xmlns="http://www.w3.org/2000/svg">
<rect width="200" height="250" rx="20" fill="#172959"/>
<rect x="0.15" y="0.15" width="199.7" height="249.7" rx="19.85" stroke="black" stroke-opacity="0.5" stroke-width="0.3"/>
<rect x="26" y="75" width="150" height="1" fill="#172959"/>
<path d="M23.48 134.524H33.524V135.784H23.48V134.524ZM27.704 133.48H29.288V135.112H27.704V133.48ZM27.704 128.992H29.288V130.624H27.704V128.992ZM27.608 130.696H29.012V130.912C29.012 132.592 27.404 133.78 24.368 133.984L23.9 132.784C26.576 132.628 27.608 131.752 27.608 130.912V130.696ZM27.98 130.696H29.384V130.912C29.384 131.752 30.416 132.628 33.092 132.784L32.624 133.984C29.588 133.78 27.98 132.592 27.98 130.912V130.696ZM24.44 129.952H32.564V131.188H24.44V129.952ZM28.484 136.3C30.908 136.3 32.336 136.972 32.336 138.184C32.336 139.408 30.908 140.068 28.484 140.068C26.06 140.068 24.62 139.408 24.62 138.184C24.62 136.972 26.06 136.3 28.484 136.3ZM28.484 137.476C26.972 137.476 26.24 137.68 26.24 138.184C26.24 138.676 26.972 138.892 28.484 138.892C29.984 138.892 30.728 138.676 30.728 138.184C30.728 137.68 29.984 137.476 28.484 137.476ZM36.4631 132.028H37.6631V132.316C37.6631 134.62 36.9911 136.936 35.2151 137.956L34.3151 136.756C35.8991 135.832 36.4631 134.02 36.4631 132.316V132.028ZM36.7751 132.028H37.9751V132.316C37.9751 133.984 38.5511 135.676 40.1231 136.516L39.2591 137.692C37.4591 136.756 36.7751 134.584 36.7751 132.316V132.028ZM34.6871 130.828H39.7391V132.112H34.6871V130.828ZM36.4631 129.328H37.9751V131.86H36.4631V129.328ZM42.6311 128.956H44.1431V140.068H42.6311V128.956ZM41.2991 133.216H43.1471V134.512H41.2991V133.216ZM40.2431 129.124H41.7311V139.564H40.2431V129.124ZM45.5581 135.172H55.6261V136.444H45.5581V135.172ZM49.7581 135.988H51.3421V140.068H49.7581V135.988ZM46.7221 129.496H54.4261V133.984H46.7221V129.496ZM52.8541 130.756H48.2941V132.724H52.8541V130.756ZM23.767 155.955V154.017L28.625 146.364H30.2955V149.045H29.3068L26.2443 153.892V153.983H33.1477V155.955H23.767ZM29.3523 158V155.364L29.3977 154.506V146.364H31.7045V158H29.3523ZM37.8118 147.504H39.5398V148.08C39.5398 150.784 38.2278 153.2 35.4118 154.08L34.3878 152.416C36.7878 151.664 37.8118 149.872 37.8118 148.08V147.504ZM38.1958 147.504H39.9398V148.08C39.9398 149.744 40.9798 151.456 43.3798 152.176L42.3558 153.84C39.5558 153.008 38.1958 150.672 38.1958 148.08V147.504ZM34.8997 146.352H42.8518V148.016H34.8997V146.352ZM37.8118 144.72H39.9398V146.976H37.8118V144.72ZM42.3878 148.912H45.8278V150.656H42.3878V148.912ZM44.7558 144.624H46.8838V155.584H44.7558V144.624ZM37.1078 157.472H47.2198V159.168H37.1078V157.472ZM37.1078 154.672H39.2358V158.592H37.1078V154.672ZM57.4588 158.159C56.6558 158.159 55.9399 158.011 55.3111 157.716C54.6861 157.42 54.1899 157.013 53.8224 156.494C53.455 155.975 53.2637 155.381 53.2486 154.71H55.6349C55.6615 155.161 55.8509 155.527 56.2031 155.807C56.5554 156.087 56.974 156.227 57.4588 156.227C57.8452 156.227 58.1861 156.142 58.4815 155.972C58.7808 155.797 59.0137 155.557 59.1804 155.25C59.3509 154.939 59.4361 154.583 59.4361 154.182C59.4361 153.773 59.349 153.413 59.1747 153.102C59.0043 152.792 58.7675 152.549 58.4645 152.375C58.1615 152.201 57.8149 152.112 57.4247 152.108C57.0838 152.108 56.7524 152.178 56.4304 152.318C56.1122 152.458 55.8641 152.65 55.6861 152.892L53.4986 152.5L54.0497 146.364H61.1634V148.375H56.0781L55.777 151.29H55.8452C56.0497 151.002 56.3584 150.763 56.7713 150.574C57.1842 150.384 57.6463 150.29 58.1577 150.29C58.8584 150.29 59.4834 150.455 60.0327 150.784C60.5819 151.114 61.0156 151.566 61.3338 152.142C61.652 152.714 61.8092 153.373 61.8054 154.119C61.8092 154.903 61.6274 155.6 61.2599 156.21C60.8963 156.816 60.3868 157.294 59.7315 157.642C59.08 157.987 58.3224 158.159 57.4588 158.159ZM63.7301 145.552H65.7301V147.632H67.6181V145.552H69.6021V152.72H63.7301V145.552ZM65.7301 149.264V151.056H67.6181V149.264H65.7301ZM73.8261 144.624H75.8421V153.536H73.8261V144.624ZM72.0501 148.224H74.4021V149.952H72.0501V148.224ZM70.6901 144.88H72.6741V153.472H70.6901V144.88ZM65.6661 154.208H75.8421V159.424H73.7301V155.904H65.6661V154.208ZM78.3689 145.824H85.4249V152.976H78.3689V145.824ZM83.3289 147.504H80.4649V151.296H83.3289V147.504ZM87.4729 144.608H89.6009V155.408H87.4729V144.608ZM88.9929 148.88H91.5689V150.624H88.9929V148.88ZM80.0489 157.472H90.1289V159.168H80.0489V157.472ZM80.0489 154.352H82.1769V158.32H80.0489V154.352ZM98.4673 157.455L97.8111 156.807L100.513 154.105H93.5156V153.168H100.513L97.8111 150.474L98.4673 149.818L102.286 153.636L98.4673 157.455ZM110.811 149.273V158H109.755V150.381H109.703L107.573 151.795V150.722L109.755 149.273H110.811ZM115.718 150.128H116.534V150.668C116.534 152.624 115.346 154.232 113.534 154.868L113.042 154.088C114.65 153.536 115.718 152.192 115.718 150.668V150.128ZM115.886 150.128H116.714V150.668C116.714 152.108 117.818 153.38 119.426 153.884L118.934 154.676C117.122 154.076 115.886 152.54 115.886 150.668V150.128ZM113.318 149.54H119.102V150.344H113.318V149.54ZM115.718 148.16H116.714V149.84H115.718V148.16ZM118.742 151.424H121.478V152.252H118.742V151.424ZM120.938 148.1H121.934V156.188H120.938V148.1ZM115.01 157.88H122.234V158.696H115.01V157.88ZM115.01 155.468H116.006V158.324H115.01V155.468ZM130.804 149.273V158H129.747V150.381H129.696L127.565 151.795V150.722L129.747 149.273H130.804ZM133.49 148.784H134.426V150.488H136.742V148.784H137.69V153.836H133.49V148.784ZM134.426 151.28V153.032H136.742V151.28H134.426ZM141.194 148.1H142.142V154.604H141.194V148.1ZM139.442 150.908H141.494V151.736H139.442V150.908ZM138.866 148.292H139.814V154.544H138.866V148.292ZM134.87 155.252H142.142V158.936H141.158V156.068H134.87V155.252ZM144.493 149.06H149.473V154.088H144.493V149.06ZM148.501 149.864H145.465V153.284H148.501V149.864ZM151.465 148.076H152.461V156.032H151.465V148.076ZM152.149 151.388H154.069V152.216H152.149V151.388ZM145.705 157.88H152.953V158.696H145.705V157.88ZM145.705 155.276H146.701V158.228H145.705V155.276Z" fill="white"/>
<path d="M23 152.761H33.8438V153.852H23V152.761ZM33.8438 152.8H48.5625V153.6H33.8438V152.8ZM48.5625 152.761H62.5781V153.852H48.5625V152.761ZM62.5781 152.8H92.0156V153.6H62.5781V152.8Z" fill="white"/>
<path d="M71.4926 19.216H75.7486V37.2H71.4926V19.216ZM74.5646 26.16H79.6846V29.648H74.5646V26.16ZM66.0846 37.744C72.2606 37.744 76.1006 39.792 76.1006 43.312C76.1006 46.832 72.2606 48.848 66.0846 48.848C59.9086 48.848 56.0366 46.832 56.0366 43.312C56.0366 39.792 59.9086 37.744 66.0846 37.744ZM66.0846 40.976C62.2766 40.976 60.2926 41.744 60.2926 43.312C60.2926 44.88 62.2766 45.648 66.0846 45.648C69.8926 45.648 71.8766 44.88 71.8766 43.312C71.8766 41.744 69.8926 40.976 66.0846 40.976ZM53.5086 32.4H55.9726C61.7326 32.4 65.1246 32.272 68.9966 31.6L69.4446 34.928C65.4766 35.632 61.8926 35.76 55.9726 35.76H53.5086V32.4ZM53.5086 21.104H67.4286V24.496H57.7646V33.712H53.5086V21.104ZM56.4526 26.768H66.7886V30.032H56.4526V26.768ZM100.93 19.216H105.186V35.728H100.93V19.216ZM104.002 25.648H109.122V29.136H104.002V25.648ZM92.4181 20.912H96.9621C96.9621 28.784 92.0341 34.128 83.2021 36.432L81.5381 33.072C88.8021 31.248 92.4181 27.472 92.4181 23.024V20.912ZM82.9461 20.912H94.9781V24.272H82.9461V20.912ZM85.9541 36.912H105.186V48.528H85.9541V36.912ZM100.994 40.272H90.1461V45.168H100.994V40.272ZM111.296 32.304H138.144V35.408H111.296V32.304ZM114.304 37.104H134.944V44.144H118.592V46.672H114.368V41.456H130.752V39.984H114.304V37.104ZM114.368 45.776H135.776V48.656H114.368V45.776ZM114.592 19.696H134.88V26.672H118.848V29.104H114.624V23.984H130.688V22.544H114.592V19.696ZM114.624 28.112H135.424V30.992H114.624V28.112ZM117.888 33.36H122.112V38.928H117.888V33.36ZM127.328 33.36H131.552V38.928H127.328V33.36Z" fill="white"/>
<path d="M72.5437 94L84.6033 70.1364V69.9375H70.555V64.9091H90.967V70.0085L78.8931 94H72.5437ZM92.3981 88.8864V84.0426L104.543 64.9091H108.719V71.6136H106.248L98.5913 83.7301V83.9574H115.85V88.8864H92.3981ZM106.361 94V87.4091L106.475 85.2642V64.9091H112.242V94H106.361ZM123.834 92.0909V91.554C123.834 91.1828 123.91 90.843 124.063 90.5348C124.219 90.2232 124.444 89.9747 124.739 89.7891C125.037 89.6001 125.399 89.5057 125.823 89.5057C126.254 89.5057 126.615 89.6001 126.907 89.7891C127.198 89.9747 127.419 90.2232 127.568 90.5348C127.717 90.843 127.792 91.1828 127.792 91.554V92.0909C127.792 92.4621 127.715 92.8035 127.563 93.1151C127.414 93.4233 127.192 93.6719 126.897 93.8608C126.605 94.0464 126.247 94.1392 125.823 94.1392C125.392 94.1392 125.029 94.0464 124.734 93.8608C124.439 93.6719 124.215 93.4233 124.063 93.1151C123.91 92.8035 123.834 92.4621 123.834 92.0909ZM124.848 91.554V92.0909C124.848 92.3991 124.921 92.6759 125.067 92.9212C125.213 93.1631 125.465 93.2841 125.823 93.2841C126.171 93.2841 126.416 93.1631 126.559 92.9212C126.704 92.6759 126.777 92.3991 126.777 92.0909V91.554C126.777 91.2457 126.708 90.9706 126.569 90.7287C126.429 90.4834 126.181 90.3608 125.823 90.3608C125.475 90.3608 125.225 90.4834 125.072 90.7287C124.923 90.9706 124.848 91.2457 124.848 91.554ZM118.763 86.2642V85.7273C118.763 85.3561 118.839 85.0163 118.992 84.7081C119.148 84.3965 119.373 84.148 119.668 83.9624C119.966 83.7734 120.328 83.679 120.752 83.679C121.183 83.679 121.544 83.7734 121.836 83.9624C122.127 84.148 122.348 84.3965 122.497 84.7081C122.646 85.0163 122.721 85.3561 122.721 85.7273V86.2642C122.721 86.6354 122.644 86.9768 122.492 87.2884C122.343 87.5966 122.121 87.8452 121.826 88.0341C121.534 88.2197 121.176 88.3125 120.752 88.3125C120.321 88.3125 119.958 88.2197 119.663 88.0341C119.368 87.8452 119.144 87.5966 118.992 87.2884C118.839 86.9768 118.763 86.6354 118.763 86.2642ZM119.777 85.7273V86.2642C119.777 86.5724 119.85 86.8492 119.996 87.0945C120.142 87.3364 120.394 87.4574 120.752 87.4574C121.1 87.4574 121.345 87.3364 121.488 87.0945C121.633 86.8492 121.706 86.5724 121.706 86.2642V85.7273C121.706 85.419 121.637 85.1439 121.498 84.902C121.358 84.6567 121.11 84.5341 120.752 84.5341C120.404 84.5341 120.154 84.6567 120.001 84.902C119.852 85.1439 119.777 85.419 119.777 85.7273ZM119.141 94L126.141 83.8182H127.275L120.275 94H119.141Z" fill="#FFCD4A"/>
<path d="M133.976 227.708H135.236V228.956C135.236 231.464 134.18 234.02 132.14 234.98L131.24 233.72C133.076 232.856 133.976 230.78 133.976 228.956V227.708ZM134.312 227.708H135.572V228.956C135.572 230.636 136.436 232.604 138.26 233.444L137.384 234.704C135.344 233.756 134.312 231.32 134.312 228.956V227.708ZM131.672 227.024H137.768V228.332H131.672V227.024ZM138.584 225.956H140.192V237.068H138.584V225.956ZM139.832 230.192H141.8V231.512H139.832V230.192ZM146.899 229.688H148.735V230.984H146.899V229.688ZM144.523 226.916H145.747V228.788C145.747 231.308 145.051 233.768 143.275 234.86L142.315 233.66C143.947 232.652 144.523 230.672 144.523 228.788V226.916ZM144.871 226.916H146.071V228.716C146.071 230.528 146.539 232.376 148.051 233.36L147.187 234.608C145.423 233.516 144.871 231.116 144.871 228.716V226.916ZM150.547 225.956H152.071V237.068H150.547V225.956ZM148.291 226.124H149.779V236.564H148.291V226.124ZM161.178 225.956H162.786V237.068H161.178V225.956ZM153.798 227.624H160.374V228.884H153.798V227.624ZM157.098 229.496C158.742 229.496 159.954 230.6 159.954 232.148C159.954 233.696 158.742 234.8 157.098 234.8C155.454 234.8 154.254 233.696 154.254 232.148C154.254 230.6 155.454 229.496 157.098 229.496ZM157.098 230.792C156.33 230.792 155.778 231.296 155.778 232.148C155.778 233 156.33 233.504 157.098 233.504C157.866 233.504 158.418 233 158.418 232.148C158.418 231.296 157.866 230.792 157.098 230.792ZM156.282 226.112H157.89V228.404H156.282V226.112ZM164.609 234.488H174.665V235.784H164.609V234.488ZM168.821 232.112H170.417V234.8H168.821V232.112ZM165.665 226.664H167.249V228.368H171.989V226.664H173.573V232.448H165.665V226.664ZM167.249 229.616V231.176H171.989V229.616H167.249ZM183.292 225.956H184.9V237.068H183.292V225.956ZM180.016 227.108H181.6C181.6 230.504 180.448 233.288 176.5 235.196L175.672 233.924C178.864 232.388 180.016 230.372 180.016 227.396V227.108ZM176.26 227.108H180.772V228.368H176.26V227.108Z" fill="white"/>
<path d="M24.054 187V186.105L27.4148 182.426C27.8092 181.995 28.134 181.621 28.3892 181.303C28.6444 180.981 28.8333 180.679 28.956 180.398C29.0819 180.113 29.1449 179.814 29.1449 179.503C29.1449 179.145 29.0587 178.835 28.8864 178.573C28.7173 178.311 28.4853 178.109 28.1903 177.967C27.8954 177.824 27.5639 177.753 27.196 177.753C26.8049 177.753 26.4635 177.834 26.1719 177.996C25.8835 178.156 25.6598 178.379 25.5007 178.668C25.3449 178.956 25.267 179.294 25.267 179.682H24.0938C24.0938 179.085 24.2313 178.562 24.5064 178.111C24.7815 177.66 25.156 177.309 25.63 177.057C26.1072 176.805 26.6425 176.679 27.2358 176.679C27.8324 176.679 28.361 176.805 28.8217 177.057C29.2824 177.309 29.6437 177.648 29.9055 178.076C30.1674 178.504 30.2983 178.979 30.2983 179.503C30.2983 179.877 30.2304 180.244 30.0945 180.602C29.9619 180.956 29.7299 181.352 29.3984 181.79C29.0703 182.224 28.6146 182.754 28.0312 183.381L25.7443 185.827V185.906H30.4773V187H24.054ZM35.9112 187.139C35.4936 187.133 35.076 187.053 34.6584 186.901C34.2408 186.748 33.8596 186.491 33.5149 186.13C33.1702 185.765 32.8935 185.273 32.6847 184.653C32.4759 184.03 32.3714 183.248 32.3714 182.307C32.3714 181.405 32.456 180.607 32.625 179.911C32.794 179.211 33.0393 178.623 33.3608 178.146C33.6823 177.665 34.0701 177.3 34.5241 177.052C34.9815 176.803 35.4969 176.679 36.0703 176.679C36.6404 176.679 37.1475 176.793 37.5916 177.022C38.0391 177.247 38.4036 177.562 38.6854 177.967C38.9671 178.371 39.1494 178.837 39.2322 179.364H38.0192C37.9065 178.906 37.6877 178.527 37.3629 178.225C37.0381 177.924 36.6072 177.773 36.0703 177.773C35.2815 177.773 34.66 178.116 34.206 178.802C33.7552 179.488 33.5282 180.451 33.5249 181.69H33.6044C33.79 181.409 34.0104 181.168 34.2656 180.969C34.5241 180.767 34.8092 180.612 35.1207 180.502C35.4323 180.393 35.7621 180.338 36.1101 180.338C36.6934 180.338 37.227 180.484 37.7109 180.776C38.1948 181.064 38.5826 181.463 38.8743 181.974C39.166 182.481 39.3118 183.062 39.3118 183.719C39.3118 184.348 39.1709 184.925 38.8892 185.449C38.6075 185.969 38.2114 186.384 37.701 186.692C37.1939 186.997 36.5973 187.146 35.9112 187.139ZM35.9112 186.045C36.3288 186.045 36.7034 185.941 37.0348 185.732C37.3696 185.523 37.633 185.243 37.8253 184.892C38.0208 184.541 38.1186 184.15 38.1186 183.719C38.1186 183.298 38.0241 182.915 37.8352 182.57C37.6496 182.222 37.3928 181.946 37.0646 181.74C36.7398 181.535 36.3686 181.432 35.951 181.432C35.6361 181.432 35.3428 181.495 35.071 181.621C34.7992 181.743 34.5606 181.912 34.3551 182.128C34.1529 182.343 33.9938 182.59 33.8778 182.869C33.7618 183.144 33.7038 183.434 33.7038 183.739C33.7038 184.143 33.7983 184.521 33.9872 184.872C34.1795 185.223 34.4413 185.507 34.7727 185.722C35.1075 185.938 35.487 186.045 35.9112 186.045ZM45.8969 179.958H48.3189V180.924H45.8969V179.958ZM43.5309 176.626H44.4409V179.034C44.4409 181.68 43.3349 184.242 41.4869 185.376L40.7589 184.494C42.4949 183.472 43.5309 181.204 43.5309 179.034V176.626ZM43.7549 176.626H44.6509V178.992C44.6509 181.022 45.6029 183.178 47.2689 184.186L46.5969 185.096C44.7769 183.976 43.7549 181.456 43.7549 178.992V176.626ZM50.5449 175.436H51.6649V188.092H50.5449V175.436ZM47.9829 175.702H49.0749V187.462H47.9829V175.702ZM61.7026 176.341L58.4213 188.531H57.3475L60.6287 176.341H61.7026ZM67.105 176.626H68.211V179.72H70.857V176.626H71.935V184.928H67.105V176.626ZM68.211 180.658V183.976H70.857V180.658H68.211ZM76.289 175.436H77.409V188.092H76.289V175.436ZM74.259 180.448H76.695V181.4H74.259V180.448ZM73.489 175.702H74.595V187.462H73.489V175.702ZM80.0959 180.392H81.0759C83.6239 180.392 85.1219 180.308 86.8579 179.958L86.9979 180.896C85.2059 181.26 83.6659 181.344 81.0759 181.344H80.0959V180.392ZM80.0959 176.164H85.6819V177.102H81.2439V180.952H80.0959V176.164ZM88.1879 175.436H89.3499V181.806H88.1879V175.436ZM89.0279 178.096H91.2259V179.062H89.0279V178.096ZM81.3139 182.45H89.3499V185.572H82.4899V187.532H81.3419V184.676H88.2159V183.374H81.3139V182.45ZM81.3419 186.986H89.8119V187.924H81.3419V186.986ZM102.033 175.436H103.153V188.092H102.033V175.436ZM99.8908 180.504H102.327V181.47H99.8908V180.504ZM99.1628 175.716H100.255V187.448H99.1628V175.716ZM92.8628 184.004H93.6888C95.5368 184.004 96.7968 183.934 98.2668 183.626L98.3788 184.592C96.8668 184.914 95.5928 184.97 93.6888 184.97H92.8628V184.004ZM92.8628 176.976H97.5668V177.928H94.0108V184.438H92.8628V176.976ZM114.842 175.436H115.948V183.444H114.842V175.436ZM112.784 178.866H115.178V179.832H112.784V178.866ZM112.14 175.688H113.232V182.996H112.14V175.688ZM105.224 176.948H111.636V177.872H105.224V176.948ZM108.444 178.516C110.026 178.516 111.132 179.384 111.132 180.686C111.132 182.002 110.026 182.856 108.444 182.856C106.848 182.856 105.742 182.002 105.742 180.686C105.742 179.384 106.848 178.516 108.444 178.516ZM108.444 179.384C107.45 179.384 106.778 179.902 106.778 180.686C106.778 181.484 107.45 181.988 108.444 181.988C109.424 181.988 110.096 181.484 110.096 180.686C110.096 179.902 109.424 179.384 108.444 179.384ZM107.87 175.534H109.004V177.466H107.87V175.534ZM111.804 183.668C114.436 183.668 116.018 184.452 116.018 185.866C116.018 187.266 114.436 188.064 111.804 188.064C109.144 188.064 107.576 187.266 107.576 185.866C107.576 184.452 109.144 183.668 111.804 183.668ZM111.804 184.564C109.858 184.564 108.724 185.026 108.724 185.866C108.724 186.706 109.858 187.182 111.804 187.182C113.722 187.182 114.87 186.706 114.87 185.866C114.87 185.026 113.722 184.564 111.804 184.564ZM27.088 197.672H28.25V199.926H27.088V197.672ZM32.898 192.436H34.06V199.884H32.898V192.436ZM23.798 198.064L23.658 197.196C26.094 197.196 29.188 197.182 31.89 196.874L31.96 197.63C29.188 198.036 26.164 198.064 23.798 198.064ZM25.576 200.346H34.06V202.978H26.738V204.406H25.604V202.208H32.912V201.186H25.576V200.346ZM25.604 204.112H34.48V204.952H25.604V204.112ZM30.378 198.456H33.262V199.212H30.378V198.456ZM27.746 192.674C29.622 192.674 30.854 193.402 30.854 194.578C30.854 195.754 29.622 196.482 27.746 196.482C25.856 196.482 24.624 195.754 24.624 194.578C24.624 193.402 25.856 192.674 27.746 192.674ZM27.746 193.486C26.5 193.486 25.702 193.906 25.702 194.578C25.702 195.25 26.5 195.67 27.746 195.67C28.964 195.67 29.762 195.25 29.762 194.578C29.762 193.906 28.964 193.486 27.746 193.486ZM40.5164 202.488H51.9824V203.454H40.5164V202.488ZM45.6124 199.422H46.7604V202.81H45.6124V199.422ZM45.5844 193.276H46.5924V194.256C46.5924 196.958 44.0024 199.044 41.4544 199.576L40.9644 198.61C43.1904 198.204 45.5844 196.342 45.5844 194.256V193.276ZM45.7944 193.276H46.8024V194.256C46.8024 196.356 49.2104 198.204 51.4364 198.61L50.9324 199.576C48.3844 199.044 45.7944 196.958 45.7944 194.256V193.276ZM53.3953 198.596H64.8333V199.534H53.3953V198.596ZM54.6553 201.046H63.4333V205.162H62.2713V201.998H54.6553V201.046ZM54.8373 196.258H63.5173V197.196H54.8373V196.258ZM54.8373 192.912H63.4053V193.864H55.9993V196.734H54.8373V192.912ZM74.1452 193.818V204H72.9123V195.111H72.8526L70.3668 196.761V195.509L72.9123 193.818H74.1452ZM80.2553 204.139C79.672 204.139 79.1467 204.023 78.6793 203.791C78.212 203.559 77.8375 203.241 77.5558 202.837C77.274 202.432 77.1199 201.972 77.0934 201.455H78.2866C78.333 201.915 78.5418 202.296 78.913 202.598C79.2875 202.896 79.735 203.045 80.2553 203.045C80.6729 203.045 81.0442 202.948 81.369 202.752C81.6971 202.557 81.954 202.288 82.1396 201.947C82.3285 201.602 82.4229 201.213 82.4229 200.778C82.4229 200.334 82.3252 199.938 82.1296 199.59C81.9374 199.239 81.6722 198.962 81.3342 198.76C80.9961 198.558 80.61 198.455 80.1758 198.452C79.8642 198.448 79.5444 198.496 79.2163 198.596C78.8881 198.692 78.618 198.816 78.4059 198.969L77.2525 198.83L77.869 193.818H83.1587V194.912H78.9031L78.5451 197.915H78.6048C78.8136 197.749 79.0754 197.612 79.3903 197.502C79.7051 197.393 80.0333 197.338 80.3746 197.338C80.9978 197.338 81.5529 197.487 82.0401 197.786C82.5307 198.08 82.9151 198.485 83.1935 198.999C83.4753 199.512 83.6161 200.099 83.6161 200.759C83.6161 201.408 83.4703 201.988 83.1786 202.499C82.8903 203.006 82.4925 203.407 81.9854 203.702C81.4783 203.993 80.9016 204.139 80.2553 204.139ZM88.9121 204.139C88.1631 204.139 87.525 203.935 86.998 203.528C86.4711 203.117 86.0684 202.522 85.79 201.743C85.5115 200.961 85.3723 200.016 85.3723 198.909C85.3723 197.809 85.5115 196.869 85.79 196.09C86.0717 195.308 86.476 194.711 87.003 194.3C87.5333 193.886 88.1697 193.679 88.9121 193.679C89.6545 193.679 90.2892 193.886 90.8162 194.3C91.3465 194.711 91.7509 195.308 92.0293 196.09C92.311 196.869 92.4519 197.809 92.4519 198.909C92.4519 200.016 92.3127 200.961 92.0343 201.743C91.7559 202.522 91.3532 203.117 90.8262 203.528C90.2992 203.935 89.6612 204.139 88.9121 204.139ZM88.9121 203.045C89.6545 203.045 90.2312 202.687 90.6422 201.972C91.0532 201.256 91.2587 200.235 91.2587 198.909C91.2587 198.027 91.1642 197.277 90.9753 196.657C90.7897 196.037 90.5212 195.565 90.1699 195.24C89.8219 194.915 89.4026 194.753 88.9121 194.753C88.1763 194.753 87.6013 195.116 87.187 195.842C86.7727 196.564 86.5655 197.587 86.5655 198.909C86.5655 199.791 86.6583 200.54 86.8439 201.156C87.0295 201.773 87.2963 202.242 87.6444 202.563C87.9957 202.885 88.4183 203.045 88.9121 203.045ZM94.5051 193.57H100.315V199.436H94.5051V193.57ZM99.1811 194.508H95.6391V198.498H99.1811V194.508ZM102.639 192.422H103.801V201.704H102.639V192.422ZM103.437 196.286H105.677V197.252H103.437V196.286ZM95.9191 203.86H104.375V204.812H95.9191V203.86ZM95.9191 200.822H97.0811V204.266H95.9191V200.822Z" fill="white"/>
<rect x="25" y="110" width="155" height="1" fill="white"/>
</svg>
