<svg width="200" height="250" viewBox="0 0 200 250" fill="none" xmlns="http://www.w3.org/2000/svg">
<rect width="200" height="250" rx="20" fill="#172959"/>
<rect x="0.15" y="0.15" width="199.7" height="249.7" rx="19.85" stroke="black" stroke-opacity="0.5" stroke-width="0.3"/>
<rect x="26" y="75" width="150" height="1" fill="#172959"/>
<path d="M23.48 134.524H33.524V135.784H23.48V134.524ZM27.704 133.48H29.288V135.112H27.704V133.48ZM27.704 128.992H29.288V130.624H27.704V128.992ZM27.608 130.696H29.012V130.912C29.012 132.592 27.404 133.78 24.368 133.984L23.9 132.784C26.576 132.628 27.608 131.752 27.608 130.912V130.696ZM27.98 130.696H29.384V130.912C29.384 131.752 30.416 132.628 33.092 132.784L32.624 133.984C29.588 133.78 27.98 132.592 27.98 130.912V130.696ZM24.44 129.952H32.564V131.188H24.44V129.952ZM28.484 136.3C30.908 136.3 32.336 136.972 32.336 138.184C32.336 139.408 30.908 140.068 28.484 140.068C26.06 140.068 24.62 139.408 24.62 138.184C24.62 136.972 26.06 136.3 28.484 136.3ZM28.484 137.476C26.972 137.476 26.24 137.68 26.24 138.184C26.24 138.676 26.972 138.892 28.484 138.892C29.984 138.892 30.728 138.676 30.728 138.184C30.728 137.68 29.984 137.476 28.484 137.476ZM36.4631 132.028H37.6631V132.316C37.6631 134.62 36.9911 136.936 35.2151 137.956L34.3151 136.756C35.8991 135.832 36.4631 134.02 36.4631 132.316V132.028ZM36.7751 132.028H37.9751V132.316C37.9751 133.984 38.5511 135.676 40.1231 136.516L39.2591 137.692C37.4591 136.756 36.7751 134.584 36.7751 132.316V132.028ZM34.6871 130.828H39.7391V132.112H34.6871V130.828ZM36.4631 129.328H37.9751V131.86H36.4631V129.328ZM42.6311 128.956H44.1431V140.068H42.6311V128.956ZM41.2991 133.216H43.1471V134.512H41.2991V133.216ZM40.2431 129.124H41.7311V139.564H40.2431V129.124ZM45.5581 135.172H55.6261V136.444H45.5581V135.172ZM49.7581 135.988H51.3421V140.068H49.7581V135.988ZM46.7221 129.496H54.4261V133.984H46.7221V129.496ZM52.8541 130.756H48.2941V132.724H52.8541V130.756ZM29.0057 146.364V158H26.5455V148.699H26.4773L23.8125 150.369V148.188L26.6932 146.364H29.0057ZM38.7481 148.192H42.3001V149.904H38.7481V148.192ZM33.7721 154.064H43.8681V159.44H41.7401V155.728H33.7721V154.064ZM41.7401 144.608H43.8681V153.376H41.7401V144.608ZM35.5641 145.376C37.7721 145.376 39.4681 146.912 39.4681 149.04C39.4681 151.184 37.7721 152.72 35.5641 152.72C33.3401 152.72 31.6441 151.184 31.6441 149.04C31.6441 146.912 33.3401 145.376 35.5641 145.376ZM35.5641 147.184C34.4921 147.184 33.6761 147.872 33.6761 149.04C33.6761 150.224 34.4921 150.912 35.5641 150.912C36.6201 150.912 37.4361 150.224 37.4361 149.04C37.4361 147.872 36.6201 147.184 35.5641 147.184ZM50.017 155.955V154.017L54.875 146.364H56.5455V149.045H55.5568L52.4943 153.892V153.983H59.3977V155.955H50.017ZM55.6023 158V155.364L55.6477 154.506V146.364H57.9545V158H55.6023ZM64.0618 147.504H65.7898V148.08C65.7898 150.784 64.4778 153.2 61.6618 154.08L60.6378 152.416C63.0378 151.664 64.0618 149.872 64.0618 148.08V147.504ZM64.4458 147.504H66.1898V148.08C66.1898 149.744 67.2298 151.456 69.6298 152.176L68.6058 153.84C65.8058 153.008 64.4458 150.672 64.4458 148.08V147.504ZM61.1497 146.352H69.1018V148.016H61.1497V146.352ZM64.0618 144.72H66.1898V146.976H64.0618V144.72ZM68.6378 148.912H72.0778V150.656H68.6378V148.912ZM71.0058 144.624H73.1338V155.584H71.0058V144.624ZM63.3578 157.472H73.4698V159.168H63.3578V157.472ZM63.3578 154.672H65.4858V158.592H63.3578V154.672ZM75.8845 145.824H82.9405V152.976H75.8845V145.824ZM80.8445 147.504H77.9805V151.296H80.8445V147.504ZM84.9885 144.608H87.1165V155.408H84.9885V144.608ZM86.5085 148.88H89.0845V150.624H86.5085V148.88ZM77.5645 157.472H87.6445V159.168H77.5645V157.472ZM77.5645 154.352H79.6925V158.32H77.5645V154.352ZM95.983 157.455L95.3267 156.807L98.0284 154.105H91.0312V153.168H98.0284L95.3267 150.474L95.983 149.818L99.8011 153.636L95.983 157.455ZM108.157 158.119C107.799 158.114 107.441 158.045 107.083 157.915C106.725 157.784 106.398 157.564 106.103 157.254C105.807 156.942 105.57 156.52 105.391 155.989C105.212 155.455 105.123 154.784 105.123 153.977C105.123 153.205 105.195 152.52 105.34 151.923C105.485 151.324 105.695 150.82 105.971 150.411C106.246 149.999 106.578 149.686 106.968 149.473C107.36 149.26 107.801 149.153 108.293 149.153C108.782 149.153 109.216 149.251 109.597 149.447C109.98 149.641 110.293 149.911 110.534 150.257C110.776 150.604 110.932 151.003 111.003 151.455H109.963C109.867 151.062 109.679 150.737 109.401 150.479C109.123 150.22 108.753 150.091 108.293 150.091C107.617 150.091 107.084 150.385 106.695 150.973C106.309 151.561 106.114 152.386 106.111 153.449H106.179C106.338 153.207 106.527 153.001 106.746 152.831C106.968 152.658 107.212 152.524 107.479 152.43C107.746 152.337 108.029 152.29 108.327 152.29C108.827 152.29 109.284 152.415 109.699 152.665C110.114 152.912 110.446 153.254 110.696 153.692C110.946 154.126 111.071 154.625 111.071 155.188C111.071 155.727 110.951 156.222 110.709 156.67C110.468 157.116 110.128 157.472 109.691 157.736C109.256 157.997 108.745 158.125 108.157 158.119ZM108.157 157.182C108.515 157.182 108.836 157.092 109.12 156.913C109.407 156.734 109.632 156.494 109.797 156.193C109.965 155.892 110.049 155.557 110.049 155.188C110.049 154.827 109.968 154.499 109.806 154.203C109.647 153.905 109.426 153.668 109.145 153.491C108.867 153.315 108.549 153.227 108.191 153.227C107.921 153.227 107.669 153.281 107.436 153.389C107.203 153.494 106.999 153.639 106.823 153.824C106.65 154.009 106.513 154.22 106.414 154.459C106.314 154.695 106.265 154.943 106.265 155.205C106.265 155.551 106.346 155.875 106.507 156.176C106.672 156.477 106.897 156.72 107.181 156.905C107.468 157.089 107.793 157.182 108.157 157.182ZM113.854 156.807L113.786 157.267C113.738 157.591 113.664 157.938 113.564 158.307C113.468 158.676 113.367 159.024 113.262 159.351C113.157 159.678 113.07 159.938 113.002 160.131H112.235C112.272 159.949 112.32 159.709 112.38 159.411C112.439 159.112 112.499 158.778 112.559 158.409C112.621 158.043 112.672 157.668 112.712 157.284L112.763 156.807H113.854ZM115.7 158V157.233L118.581 154.08C118.919 153.71 119.197 153.389 119.416 153.116C119.635 152.841 119.797 152.582 119.902 152.341C120.01 152.097 120.064 151.841 120.064 151.574C120.064 151.267 119.99 151.001 119.842 150.777C119.697 150.553 119.499 150.379 119.246 150.257C118.993 150.135 118.709 150.074 118.393 150.074C118.058 150.074 117.766 150.143 117.516 150.283C117.268 150.419 117.077 150.611 116.94 150.858C116.807 151.105 116.74 151.395 116.74 151.727H115.734C115.734 151.216 115.852 150.767 116.088 150.381C116.324 149.994 116.645 149.693 117.051 149.477C117.46 149.261 117.919 149.153 118.428 149.153C118.939 149.153 119.392 149.261 119.787 149.477C120.182 149.693 120.491 149.984 120.716 150.351C120.94 150.717 121.053 151.125 121.053 151.574C121.053 151.895 120.994 152.209 120.878 152.516C120.764 152.82 120.565 153.159 120.281 153.534C120 153.906 119.609 154.361 119.109 154.898L117.149 156.994V157.062H121.206V158H115.7ZM125.812 158.119C125.17 158.119 124.624 157.945 124.172 157.595C123.72 157.243 123.375 156.733 123.136 156.065C122.898 155.395 122.778 154.585 122.778 153.636C122.778 152.693 122.898 151.888 123.136 151.22C123.378 150.55 123.724 150.038 124.176 149.686C124.631 149.331 125.176 149.153 125.812 149.153C126.449 149.153 126.993 149.331 127.445 149.686C127.899 150.038 128.246 150.55 128.484 151.22C128.726 151.888 128.847 152.693 128.847 153.636C128.847 154.585 128.727 155.395 128.489 156.065C128.25 156.733 127.905 157.243 127.453 157.595C127.001 157.945 126.455 158.119 125.812 158.119ZM125.812 157.182C126.449 157.182 126.943 156.875 127.295 156.261C127.648 155.648 127.824 154.773 127.824 153.636C127.824 152.881 127.743 152.237 127.581 151.706C127.422 151.175 127.192 150.77 126.891 150.491C126.592 150.213 126.233 150.074 125.812 150.074C125.182 150.074 124.689 150.385 124.334 151.007C123.979 151.626 123.801 152.503 123.801 153.636C123.801 154.392 123.881 155.034 124.04 155.562C124.199 156.091 124.428 156.493 124.726 156.768C125.027 157.044 125.389 157.182 125.812 157.182ZM133.312 158.119C132.67 158.119 132.124 157.945 131.672 157.595C131.22 157.243 130.875 156.733 130.636 156.065C130.398 155.395 130.278 154.585 130.278 153.636C130.278 152.693 130.398 151.888 130.636 151.22C130.878 150.55 131.224 150.038 131.676 149.686C132.131 149.331 132.676 149.153 133.312 149.153C133.949 149.153 134.493 149.331 134.945 149.686C135.399 150.038 135.746 150.55 135.984 151.22C136.226 151.888 136.347 152.693 136.347 153.636C136.347 154.585 136.227 155.395 135.989 156.065C135.75 156.733 135.405 157.243 134.953 157.595C134.501 157.945 133.955 158.119 133.312 158.119ZM133.312 157.182C133.949 157.182 134.443 156.875 134.795 156.261C135.148 155.648 135.324 154.773 135.324 153.636C135.324 152.881 135.243 152.237 135.081 151.706C134.922 151.175 134.692 150.77 134.391 150.491C134.092 150.213 133.733 150.074 133.312 150.074C132.682 150.074 132.189 150.385 131.834 151.007C131.479 151.626 131.301 152.503 131.301 153.636C131.301 154.392 131.381 155.034 131.54 155.562C131.699 156.091 131.928 156.493 132.226 156.768C132.527 157.044 132.889 157.182 133.312 157.182ZM138.143 148.784H139.079V150.488H141.395V148.784H142.343V153.836H138.143V148.784ZM139.079 151.28V153.032H141.395V151.28H139.079ZM145.847 148.1H146.795V154.604H145.847V148.1ZM144.095 150.908H146.147V151.736H144.095V150.908ZM143.519 148.292H144.467V154.544H143.519V148.292ZM139.523 155.252H146.795V158.936H145.811V156.068H139.523V155.252ZM149.146 149.06H154.126V154.088H149.146V149.06ZM153.154 149.864H150.118V153.284H153.154V149.864ZM156.118 148.076H157.114V156.032H156.118V148.076ZM156.802 151.388H158.722V152.216H156.802V151.388ZM150.358 157.88H157.606V158.696H150.358V157.88ZM150.358 155.276H151.354V158.228H150.358V155.276Z" fill="white"/>
<path d="M23 152.761H30.8281V153.852H23V152.761ZM30.8281 152.8H45.5469V153.6H30.8281V152.8ZM45.5469 152.761H60.0938V153.852H45.5469V152.761ZM60.0938 152.8H89.5312V153.6H60.0938V152.8Z" fill="white"/>
<path d="M71.4926 19.216H75.7486V37.2H71.4926V19.216ZM74.5646 26.16H79.6846V29.648H74.5646V26.16ZM66.0846 37.744C72.2606 37.744 76.1006 39.792 76.1006 43.312C76.1006 46.832 72.2606 48.848 66.0846 48.848C59.9086 48.848 56.0366 46.832 56.0366 43.312C56.0366 39.792 59.9086 37.744 66.0846 37.744ZM66.0846 40.976C62.2766 40.976 60.2926 41.744 60.2926 43.312C60.2926 44.88 62.2766 45.648 66.0846 45.648C69.8926 45.648 71.8766 44.88 71.8766 43.312C71.8766 41.744 69.8926 40.976 66.0846 40.976ZM53.5086 32.4H55.9726C61.7326 32.4 65.1246 32.272 68.9966 31.6L69.4446 34.928C65.4766 35.632 61.8926 35.76 55.9726 35.76H53.5086V32.4ZM53.5086 21.104H67.4286V24.496H57.7646V33.712H53.5086V21.104ZM56.4526 26.768H66.7886V30.032H56.4526V26.768ZM100.93 19.216H105.186V35.728H100.93V19.216ZM104.002 25.648H109.122V29.136H104.002V25.648ZM92.4181 20.912H96.9621C96.9621 28.784 92.0341 34.128 83.2021 36.432L81.5381 33.072C88.8021 31.248 92.4181 27.472 92.4181 23.024V20.912ZM82.9461 20.912H94.9781V24.272H82.9461V20.912ZM85.9541 36.912H105.186V48.528H85.9541V36.912ZM100.994 40.272H90.1461V45.168H100.994V40.272ZM111.296 32.304H138.144V35.408H111.296V32.304ZM114.304 37.104H134.944V44.144H118.592V46.672H114.368V41.456H130.752V39.984H114.304V37.104ZM114.368 45.776H135.776V48.656H114.368V45.776ZM114.592 19.696H134.88V26.672H118.848V29.104H114.624V23.984H130.688V22.544H114.592V19.696ZM114.624 28.112H135.424V30.992H114.624V28.112ZM117.888 33.36H122.112V38.928H117.888V33.36ZM127.328 33.36H131.552V38.928H127.328V33.36Z" fill="white"/>
<path d="M80.2017 94.3977C78.1941 94.3977 76.4044 94.0284 74.8324 93.2898C73.2699 92.5511 72.0294 91.5331 71.1108 90.2358C70.1922 88.9384 69.714 87.4517 69.6761 85.7756H75.642C75.7083 86.9025 76.1818 87.8163 77.0625 88.517C77.9432 89.2178 78.9896 89.5682 80.2017 89.5682C81.1676 89.5682 82.0199 89.3551 82.7585 88.929C83.5066 88.4934 84.089 87.892 84.5057 87.125C84.9318 86.3485 85.1449 85.4583 85.1449 84.4545C85.1449 83.4318 84.9271 82.5322 84.4915 81.7557C84.0653 80.9792 83.4735 80.3731 82.7159 79.9375C81.9583 79.5019 81.0919 79.2794 80.1165 79.2699C79.2642 79.2699 78.4356 79.4451 77.6307 79.7955C76.8352 80.1458 76.215 80.6241 75.7699 81.2301L70.3011 80.25L71.679 64.9091H89.4631V69.9375H76.75L75.9972 77.2244H76.1676C76.679 76.5047 77.4508 75.9081 78.483 75.4347C79.5152 74.9612 80.6705 74.7244 81.9489 74.7244C83.7008 74.7244 85.2633 75.1364 86.6364 75.9602C88.0095 76.7841 89.0938 77.9157 89.8892 79.3551C90.6847 80.785 91.0777 82.4328 91.0682 84.2983C91.0777 86.2585 90.6231 88.0009 89.7045 89.5256C88.7955 91.0407 87.5218 92.2339 85.8835 93.1051C84.2547 93.9669 82.3608 94.3977 80.2017 94.3977ZM106.523 94.3977C105.027 94.3883 103.582 94.1373 102.19 93.6449C100.808 93.1525 99.5672 92.3523 98.4688 91.2443C97.3703 90.1364 96.4991 88.6686 95.8551 86.8409C95.2206 85.0133 94.9034 82.7689 94.9034 80.108C94.9129 77.6648 95.1922 75.482 95.7415 73.5597C96.3002 71.6278 97.0956 69.9896 98.1278 68.6449C99.1695 67.3002 100.415 66.2775 101.864 65.5767C103.313 64.8665 104.937 64.5114 106.736 64.5114C108.677 64.5114 110.391 64.8902 111.878 65.6477C113.365 66.3958 114.558 67.4138 115.457 68.7017C116.366 69.9896 116.916 71.4337 117.105 73.0341H111.04C110.803 72.0208 110.306 71.2254 109.548 70.6477C108.791 70.0701 107.853 69.7812 106.736 69.7812C104.842 69.7812 103.402 70.6051 102.418 72.2528C101.442 73.9006 100.945 76.1402 100.926 78.9716H101.125C101.561 78.1098 102.148 77.3759 102.886 76.7699C103.634 76.1544 104.482 75.6856 105.429 75.3636C106.385 75.0322 107.394 74.8665 108.455 74.8665C110.178 74.8665 111.712 75.2737 113.057 76.0881C114.402 76.893 115.462 78.0009 116.239 79.4119C117.015 80.8229 117.403 82.4375 117.403 84.2557C117.403 86.2254 116.944 87.9773 116.026 89.5114C115.116 91.0455 113.843 92.2481 112.205 93.1193C110.576 93.9811 108.682 94.4072 106.523 94.3977ZM106.494 89.5682C107.441 89.5682 108.289 89.3409 109.037 88.8864C109.785 88.4318 110.372 87.8163 110.798 87.0398C111.224 86.2633 111.438 85.392 111.438 84.4261C111.438 83.4602 111.224 82.5937 110.798 81.8267C110.382 81.0597 109.804 80.4489 109.065 79.9943C108.327 79.5398 107.484 79.3125 106.537 79.3125C105.827 79.3125 105.169 79.4451 104.562 79.7102C103.966 79.9754 103.44 80.3447 102.986 80.8182C102.541 81.2917 102.19 81.8409 101.935 82.4659C101.679 83.0814 101.551 83.7396 101.551 84.4403C101.551 85.3778 101.764 86.2348 102.19 87.0114C102.626 87.7879 103.213 88.4081 103.952 88.8722C104.7 89.3362 105.547 89.5682 106.494 89.5682ZM125.651 92.0909V91.554C125.651 91.1828 125.727 90.843 125.879 90.5348C126.035 90.2232 126.26 89.9747 126.555 89.7891C126.854 89.6001 127.215 89.5057 127.639 89.5057C128.07 89.5057 128.431 89.6001 128.723 89.7891C129.015 89.9747 129.235 90.2232 129.384 90.5348C129.533 90.843 129.608 91.1828 129.608 91.554V92.0909C129.608 92.4621 129.532 92.8035 129.379 93.1151C129.23 93.4233 129.008 93.6719 128.713 93.8608C128.421 94.0464 128.063 94.1392 127.639 94.1392C127.208 94.1392 126.845 94.0464 126.55 93.8608C126.255 93.6719 126.032 93.4233 125.879 93.1151C125.727 92.8035 125.651 92.4621 125.651 92.0909ZM126.665 91.554V92.0909C126.665 92.3991 126.738 92.6759 126.884 92.9212C127.029 93.1631 127.281 93.2841 127.639 93.2841C127.987 93.2841 128.232 93.1631 128.375 92.9212C128.521 92.6759 128.594 92.3991 128.594 92.0909V91.554C128.594 91.2457 128.524 90.9706 128.385 90.7287C128.246 90.4834 127.997 90.3608 127.639 90.3608C127.291 90.3608 127.041 90.4834 126.888 90.7287C126.739 90.9706 126.665 91.2457 126.665 91.554ZM120.58 86.2642V85.7273C120.58 85.3561 120.656 85.0163 120.808 84.7081C120.964 84.3965 121.189 84.148 121.484 83.9624C121.783 83.7734 122.144 83.679 122.568 83.679C122.999 83.679 123.36 83.7734 123.652 83.9624C123.944 84.148 124.164 84.3965 124.313 84.7081C124.462 85.0163 124.537 85.3561 124.537 85.7273V86.2642C124.537 86.6354 124.461 86.9768 124.308 87.2884C124.159 87.5966 123.937 87.8452 123.642 88.0341C123.35 88.2197 122.992 88.3125 122.568 88.3125C122.137 88.3125 121.774 88.2197 121.479 88.0341C121.184 87.8452 120.961 87.5966 120.808 87.2884C120.656 86.9768 120.58 86.6354 120.58 86.2642ZM121.594 85.7273V86.2642C121.594 86.5724 121.667 86.8492 121.812 87.0945C121.958 87.3364 122.21 87.4574 122.568 87.4574C122.916 87.4574 123.161 87.3364 123.304 87.0945C123.45 86.8492 123.523 86.5724 123.523 86.2642V85.7273C123.523 85.419 123.453 85.1439 123.314 84.902C123.175 84.6567 122.926 84.5341 122.568 84.5341C122.22 84.5341 121.97 84.6567 121.817 84.902C121.668 85.1439 121.594 85.419 121.594 85.7273ZM120.957 94L127.957 83.8182H129.091L122.091 94H120.957Z" fill="#FFCD4A"/>
<path d="M133.976 227.708H135.236V228.956C135.236 231.464 134.18 234.02 132.14 234.98L131.24 233.72C133.076 232.856 133.976 230.78 133.976 228.956V227.708ZM134.312 227.708H135.572V228.956C135.572 230.636 136.436 232.604 138.26 233.444L137.384 234.704C135.344 233.756 134.312 231.32 134.312 228.956V227.708ZM131.672 227.024H137.768V228.332H131.672V227.024ZM138.584 225.956H140.192V237.068H138.584V225.956ZM139.832 230.192H141.8V231.512H139.832V230.192ZM146.899 229.688H148.735V230.984H146.899V229.688ZM144.523 226.916H145.747V228.788C145.747 231.308 145.051 233.768 143.275 234.86L142.315 233.66C143.947 232.652 144.523 230.672 144.523 228.788V226.916ZM144.871 226.916H146.071V228.716C146.071 230.528 146.539 232.376 148.051 233.36L147.187 234.608C145.423 233.516 144.871 231.116 144.871 228.716V226.916ZM150.547 225.956H152.071V237.068H150.547V225.956ZM148.291 226.124H149.779V236.564H148.291V226.124ZM161.178 225.956H162.786V237.068H161.178V225.956ZM153.798 227.624H160.374V228.884H153.798V227.624ZM157.098 229.496C158.742 229.496 159.954 230.6 159.954 232.148C159.954 233.696 158.742 234.8 157.098 234.8C155.454 234.8 154.254 233.696 154.254 232.148C154.254 230.6 155.454 229.496 157.098 229.496ZM157.098 230.792C156.33 230.792 155.778 231.296 155.778 232.148C155.778 233 156.33 233.504 157.098 233.504C157.866 233.504 158.418 233 158.418 232.148C158.418 231.296 157.866 230.792 157.098 230.792ZM156.282 226.112H157.89V228.404H156.282V226.112ZM164.609 234.488H174.665V235.784H164.609V234.488ZM168.821 232.112H170.417V234.8H168.821V232.112ZM165.665 226.664H167.249V228.368H171.989V226.664H173.573V232.448H165.665V226.664ZM167.249 229.616V231.176H171.989V229.616H167.249ZM183.292 225.956H184.9V237.068H183.292V225.956ZM180.016 227.108H181.6C181.6 230.504 180.448 233.288 176.5 235.196L175.672 233.924C178.864 232.388 180.016 230.372 180.016 227.396V227.108ZM176.26 227.108H180.772V228.368H176.26V227.108Z" fill="white"/>
<path d="M27.4943 187.139C26.8381 187.139 26.2531 187.027 25.7393 186.801C25.2289 186.576 24.8229 186.263 24.5213 185.862C24.223 185.457 24.0606 184.988 24.0341 184.455H25.2869C25.3134 184.783 25.4261 185.066 25.625 185.305C25.8239 185.54 26.084 185.722 26.4055 185.852C26.727 185.981 27.0833 186.045 27.4744 186.045C27.9119 186.045 28.2997 185.969 28.6378 185.817C28.9759 185.664 29.241 185.452 29.4332 185.18C29.6255 184.909 29.7216 184.594 29.7216 184.236C29.7216 183.861 29.6288 183.531 29.4432 183.246C29.2576 182.958 28.9858 182.733 28.6278 182.57C28.2699 182.408 27.8324 182.327 27.3153 182.327H26.5V181.233H27.3153C27.7197 181.233 28.0743 181.16 28.3793 181.014C28.6875 180.868 28.9278 180.663 29.1001 180.398C29.2758 180.133 29.3636 179.821 29.3636 179.463C29.3636 179.118 29.2874 178.818 29.1349 178.563C28.9825 178.308 28.767 178.109 28.4886 177.967C28.2135 177.824 27.8887 177.753 27.5142 177.753C27.1629 177.753 26.8314 177.817 26.5199 177.947C26.2116 178.073 25.9598 178.257 25.7642 178.499C25.5687 178.737 25.4626 179.026 25.446 179.364H24.2528C24.2727 178.83 24.4335 178.363 24.7351 177.962C25.0367 177.557 25.4311 177.242 25.9183 177.017C26.4089 176.792 26.9474 176.679 27.5341 176.679C28.1638 176.679 28.7041 176.807 29.1548 177.062C29.6056 177.314 29.9519 177.647 30.1939 178.061C30.4358 178.475 30.5568 178.923 30.5568 179.403C30.5568 179.977 30.406 180.466 30.1044 180.87C29.8061 181.274 29.4001 181.554 28.8864 181.71V181.79C29.5294 181.896 30.0315 182.169 30.3928 182.61C30.754 183.048 30.9347 183.589 30.9347 184.236C30.9347 184.789 30.7839 185.286 30.4822 185.727C30.1839 186.165 29.7763 186.509 29.2592 186.761C28.7422 187.013 28.1539 187.139 27.4943 187.139ZM32.968 187V186.105L36.3288 182.426C36.7232 181.995 37.0481 181.621 37.3033 181.303C37.5585 180.981 37.7474 180.679 37.87 180.398C37.996 180.113 38.0589 179.814 38.0589 179.503C38.0589 179.145 37.9728 178.835 37.8004 178.573C37.6314 178.311 37.3994 178.109 37.1044 177.967C36.8094 177.824 36.478 177.753 36.1101 177.753C35.719 177.753 35.3776 177.834 35.0859 177.996C34.7976 178.156 34.5739 178.379 34.4148 178.668C34.259 178.956 34.1811 179.294 34.1811 179.682H33.0078C33.0078 179.085 33.1454 178.562 33.4205 178.111C33.6955 177.66 34.0701 177.309 34.544 177.057C35.0213 176.805 35.5566 176.679 36.1499 176.679C36.7464 176.679 37.2751 176.805 37.7358 177.057C38.1965 177.309 38.5578 177.648 38.8196 178.076C39.0814 178.504 39.2124 178.979 39.2124 179.503C39.2124 179.877 39.1444 180.244 39.0085 180.602C38.8759 180.956 38.6439 181.352 38.3125 181.79C37.9844 182.224 37.5286 182.754 36.9453 183.381L34.6584 185.827V185.906H39.3913V187H32.968ZM46.0746 179.958H48.4966V180.924H46.0746V179.958ZM43.7086 176.626H44.6186V179.034C44.6186 181.68 43.5126 184.242 41.6646 185.376L40.9366 184.494C42.6726 183.472 43.7086 181.204 43.7086 179.034V176.626ZM43.9326 176.626H44.8286V178.992C44.8286 181.022 45.7806 183.178 47.4466 184.186L46.7746 185.096C44.9546 183.976 43.9326 181.456 43.9326 178.992V176.626ZM50.7226 175.436H51.8426V188.092H50.7226V175.436ZM48.1606 175.702H49.2526V187.462H48.1606V175.702ZM61.8803 176.341L58.5991 188.531H57.5252L60.8065 176.341H61.8803ZM66.8348 185.516H78.3008V186.482H66.8348V185.516ZM71.9588 182.492H73.1208V185.796H71.9588V182.492ZM68.1788 176.332H69.3268V178.586H75.7808V176.332H76.9288V182.8H68.1788V176.332ZM69.3268 179.524V181.848H75.7808V179.524H69.3268ZM88.9537 175.436H90.1157V183.094H88.9537V175.436ZM86.8537 179.272H89.4717V180.238H86.8537V179.272ZM81.9117 183.766H90.1157V187.924H81.9117V183.766ZM88.9817 184.704H83.0457V186.986H88.9817V184.704ZM79.7277 176.752H87.0497V177.69H79.7277V176.752ZM83.3817 178.334C85.0897 178.334 86.3077 179.258 86.3077 180.602C86.3077 181.946 85.0897 182.842 83.3817 182.842C81.6737 182.842 80.4557 181.946 80.4557 180.602C80.4557 179.258 81.6737 178.334 83.3817 178.334ZM83.3817 179.23C82.3177 179.23 81.5617 179.776 81.5617 180.602C81.5617 181.414 82.3177 181.96 83.3817 181.96C84.4457 181.96 85.2017 181.414 85.2017 180.602C85.2017 179.776 84.4457 179.23 83.3817 179.23ZM82.8077 175.31H83.9697V177.424H82.8077V175.31ZM99.0886 177.718H102.323V178.684H99.0886V177.718ZM101.833 175.436H102.995V181.96H101.833V175.436ZM94.8466 182.618H102.995V185.642H96.0226V187.56H94.8886V184.774H101.847V183.542H94.8466V182.618ZM94.8886 187H103.471V187.924H94.8886V187ZM95.7426 175.828H96.6946V177.018C96.6946 179.356 95.2946 181.246 93.1806 182.002L92.5786 181.078C94.4826 180.434 95.7426 178.852 95.7426 177.018V175.828ZM95.9386 175.828H96.8766V177.018C96.8766 178.67 98.1506 180.196 99.9846 180.798L99.3826 181.708C97.3386 180.98 95.9386 179.16 95.9386 177.018V175.828ZM110.371 178.95H113.185V179.888H110.371V178.95ZM110.273 182.128H113.157V183.066H110.273V182.128ZM115.103 175.436H116.223V188.092H115.103V175.436ZM112.569 175.758H113.661V187.448H112.569V175.758ZM109.741 177.032H110.861C110.861 180.35 109.531 183.332 106.129 185.362L105.457 184.536C108.411 182.744 109.741 180.224 109.741 177.242V177.032ZM106.017 177.032H110.203V177.984H106.017V177.032ZM121.444 176.528H122.396V178.796C122.396 181.596 120.884 184.326 118.882 185.39L118.168 184.466C120.002 183.542 121.444 181.106 121.444 178.796V176.528ZM121.654 176.528H122.592V178.796C122.592 181.022 124.006 183.332 125.798 184.228L125.084 185.152C123.124 184.102 121.654 181.512 121.654 178.796V176.528ZM126.904 175.436H128.08V188.092H126.904V175.436ZM127.8 180.56H130.152V181.54H127.8V180.56ZM27.088 197.672H28.25V199.926H27.088V197.672ZM32.898 192.436H34.06V199.884H32.898V192.436ZM23.798 198.064L23.658 197.196C26.094 197.196 29.188 197.182 31.89 196.874L31.96 197.63C29.188 198.036 26.164 198.064 23.798 198.064ZM25.576 200.346H34.06V202.978H26.738V204.406H25.604V202.208H32.912V201.186H25.576V200.346ZM25.604 204.112H34.48V204.952H25.604V204.112ZM30.378 198.456H33.262V199.212H30.378V198.456ZM27.746 192.674C29.622 192.674 30.854 193.402 30.854 194.578C30.854 195.754 29.622 196.482 27.746 196.482C25.856 196.482 24.624 195.754 24.624 194.578C24.624 193.402 25.856 192.674 27.746 192.674ZM27.746 193.486C26.5 193.486 25.702 193.906 25.702 194.578C25.702 195.25 26.5 195.67 27.746 195.67C28.964 195.67 29.762 195.25 29.762 194.578C29.762 193.906 28.964 193.486 27.746 193.486ZM40.5164 202.488H51.9824V203.454H40.5164V202.488ZM45.6124 199.422H46.7604V202.81H45.6124V199.422ZM45.5844 193.276H46.5924V194.256C46.5924 196.958 44.0024 199.044 41.4544 199.576L40.9644 198.61C43.1904 198.204 45.5844 196.342 45.5844 194.256V193.276ZM45.7944 193.276H46.8024V194.256C46.8024 196.356 49.2104 198.204 51.4364 198.61L50.9324 199.576C48.3844 199.044 45.7944 196.958 45.7944 194.256V193.276ZM53.3953 198.596H64.8333V199.534H53.3953V198.596ZM54.6553 201.046H63.4333V205.162H62.2713V201.998H54.6553V201.046ZM54.8373 196.258H63.5173V197.196H54.8373V196.258ZM54.8373 192.912H63.4053V193.864H55.9993V196.734H54.8373V192.912ZM74.006 204.139C73.3498 204.139 72.7648 204.027 72.2511 203.801C71.7406 203.576 71.3346 203.263 71.033 202.862C70.7347 202.457 70.5723 201.988 70.5458 201.455H71.7987C71.8252 201.783 71.9379 202.066 72.1367 202.305C72.3356 202.54 72.5958 202.722 72.9173 202.852C73.2388 202.981 73.5951 203.045 73.9862 203.045C74.4237 203.045 74.8114 202.969 75.1495 202.817C75.4876 202.664 75.7527 202.452 75.945 202.18C76.1372 201.909 76.2333 201.594 76.2333 201.236C76.2333 200.861 76.1405 200.531 75.9549 200.246C75.7693 199.958 75.4975 199.733 75.1396 199.57C74.7816 199.408 74.3441 199.327 73.8271 199.327H73.0117V198.233H73.8271C74.2314 198.233 74.5861 198.16 74.891 198.014C75.1992 197.868 75.4395 197.663 75.6119 197.398C75.7875 197.133 75.8754 196.821 75.8754 196.463C75.8754 196.118 75.7991 195.818 75.6467 195.563C75.4942 195.308 75.2788 195.109 75.0004 194.967C74.7253 194.824 74.4004 194.753 74.0259 194.753C73.6746 194.753 73.3432 194.817 73.0316 194.947C72.7234 195.073 72.4715 195.257 72.2759 195.499C72.0804 195.737 71.9743 196.026 71.9577 196.364H70.7646C70.7844 195.83 70.9452 195.363 71.2468 194.962C71.5484 194.557 71.9428 194.242 72.43 194.017C72.9206 193.792 73.4592 193.679 74.0458 193.679C74.6755 193.679 75.2158 193.807 75.6665 194.062C76.1173 194.314 76.4637 194.647 76.7056 195.061C76.9476 195.475 77.0685 195.923 77.0685 196.403C77.0685 196.977 76.9177 197.466 76.6161 197.87C76.3178 198.274 75.9118 198.554 75.3981 198.71V198.79C76.0411 198.896 76.5432 199.169 76.9045 199.61C77.2657 200.048 77.4464 200.589 77.4464 201.236C77.4464 201.789 77.2956 202.286 76.994 202.727C76.6957 203.165 76.288 203.509 75.771 203.761C75.2539 204.013 74.6656 204.139 74.006 204.139ZM82.6616 204.139C82.0782 204.139 81.5529 204.023 81.0856 203.791C80.6183 203.559 80.2437 203.241 79.962 202.837C79.6803 202.432 79.5262 201.972 79.4996 201.455H80.6928C80.7392 201.915 80.948 202.296 81.3192 202.598C81.6938 202.896 82.1412 203.045 82.6616 203.045C83.0792 203.045 83.4504 202.948 83.7752 202.752C84.1033 202.557 84.3602 202.288 84.5458 201.947C84.7347 201.602 84.8292 201.213 84.8292 200.778C84.8292 200.334 84.7314 199.938 84.5359 199.59C84.3436 199.239 84.0785 198.962 83.7404 198.76C83.4023 198.558 83.0162 198.455 82.582 198.452C82.2705 198.448 81.9506 198.496 81.6225 198.596C81.2944 198.692 81.0243 198.816 80.8121 198.969L79.6587 198.83L80.2752 193.818H85.565V194.912H81.3093L80.9513 197.915H81.011C81.2198 197.749 81.4817 197.612 81.7965 197.502C82.1114 197.393 82.4395 197.338 82.7809 197.338C83.404 197.338 83.9592 197.487 84.4464 197.786C84.9369 198.08 85.3214 198.485 85.5998 198.999C85.8815 199.512 86.0224 200.099 86.0224 200.759C86.0224 201.408 85.8765 201.988 85.5849 202.499C85.2965 203.006 84.8988 203.407 84.3917 203.702C83.8846 203.993 83.3079 204.139 82.6616 204.139ZM91.3184 204.139C90.5693 204.139 89.9313 203.935 89.4043 203.528C88.8773 203.117 88.4746 202.522 88.1962 201.743C87.9178 200.961 87.7786 200.016 87.7786 198.909C87.7786 197.809 87.9178 196.869 88.1962 196.09C88.4779 195.308 88.8823 194.711 89.4093 194.3C89.9396 193.886 90.5759 193.679 91.3184 193.679C92.0608 193.679 92.6955 193.886 93.2225 194.3C93.7528 194.711 94.1571 195.308 94.4355 196.09C94.7173 196.869 94.8581 197.809 94.8581 198.909C94.8581 200.016 94.7189 200.961 94.4405 201.743C94.1621 202.522 93.7594 203.117 93.2324 203.528C92.7054 203.935 92.0674 204.139 91.3184 204.139ZM91.3184 203.045C92.0608 203.045 92.6375 202.687 93.0485 201.972C93.4595 201.256 93.665 200.235 93.665 198.909C93.665 198.027 93.5705 197.277 93.3816 196.657C93.196 196.037 92.9275 195.565 92.5762 195.24C92.2282 194.915 91.8089 194.753 91.3184 194.753C90.5826 194.753 90.0075 195.116 89.5932 195.842C89.1789 196.564 88.9718 197.587 88.9718 198.909C88.9718 199.791 89.0646 200.54 89.2502 201.156C89.4358 201.773 89.7026 202.242 90.0506 202.563C90.4019 202.885 90.8245 203.045 91.3184 203.045ZM96.9114 193.57H102.721V199.436H96.9114V193.57ZM101.587 194.508H98.0454V198.498H101.587V194.508ZM105.045 192.422H106.207V201.704H105.045V192.422ZM105.843 196.286H108.083V197.252H105.843V196.286ZM98.3254 203.86H106.781V204.812H98.3254V203.86ZM98.3254 200.822H99.4874V204.266H98.3254V200.822Z" fill="white"/>
<rect x="25" y="110" width="155" height="1" fill="white"/>
</svg>
