<svg width="15" height="11" viewBox="0 0 15 11" fill="none" xmlns="http://www.w3.org/2000/svg">
<path d="M15 1.07143C15 1.34558 14.8954 1.61987 14.6861 1.82879L6.11468 10.4002C5.90625 10.6105 5.6317 10.7143 5.35714 10.7143C5.08259 10.7143 4.80871 10.6097 4.59978 10.4004L0.314063 6.11468C0.104799 5.90625 0 5.6317 0 5.35714C0 4.74509 0.500558 4.28571 1.07143 4.28571C1.34558 4.28571 1.61987 4.39035 1.82879 4.59961L5.35714 8.12946L13.1719 0.314732C13.3795 0.104799 13.654 0 13.9286 0C14.5011 0 15 0.458705 15 1.07143Z" fill="#172959"/>
</svg>
