<svg width="278" height="198" viewBox="0 0 278 198" fill="none" xmlns="http://www.w3.org/2000/svg">
<path d="M15 183.071C15 183.346 14.8954 183.62 14.6861 183.829L6.11468 192.4C5.90625 192.61 5.6317 192.714 5.35714 192.714C5.08259 192.714 4.80871 192.61 4.59978 192.4L0.314063 188.115C0.104799 187.906 0 187.632 0 187.357C0 186.745 0.500558 186.286 1.07143 186.286C1.34558 186.286 1.61987 186.39 1.82879 186.6L5.35714 190.129L13.1719 182.315C13.3795 182.105 13.654 182 13.9286 182C14.5011 182 15 182.459 15 183.071Z" fill="#00C642"/>
<path fill-rule="evenodd" clip-rule="evenodd" d="M6.707 164.121L2.414 168.414L1 167L5.293 162.707L1 158.414L2.414 157L6.707 161.293L11 157L12.414 158.414L8.121 162.707L12.414 167L11 168.414L6.707 164.121Z" fill="#FF0000"/>
<path d="M21.86 162.308H23.108V163.916H21.86V162.308ZM18.836 157.196H20.072V158.084H24.932V157.196H26.18V160.844H18.836V157.196ZM20.072 159.02V159.884H24.932V159.02H20.072ZM17.54 161.588H27.452V162.596H17.54V161.588ZM18.716 163.484H26.216V166.088H19.976V167.276H18.728V165.2H24.98V164.42H18.716V163.484ZM18.728 166.94H26.528V167.9H18.728V166.94ZM29.0831 157.592H30.3311V159.14H32.9111V157.592H34.1471V162.656H29.0831V157.592ZM30.3311 160.112V161.636H32.9111V160.112H30.3311ZM33.8351 159.632H36.7391V160.664H33.8351V159.632ZM36.4151 157.028H37.6751V163.028H36.4151V157.028ZM30.5351 163.532H31.7831V164.696H36.4271V163.532H37.6631V167.852H30.5351V163.532ZM31.7831 165.68V166.844H36.4271V165.68H31.7831ZM44.9054 157.928H45.9254V159.728C45.9254 162.284 44.7854 164.732 42.9014 165.692L42.1334 164.684C43.8374 163.856 44.9054 161.756 44.9054 159.728V157.928ZM45.1454 157.928H46.1534V159.728C46.1534 161.684 47.1854 163.676 48.8294 164.492L48.0614 165.488C46.2374 164.54 45.1454 162.2 45.1454 159.728V157.928ZM49.5614 157.028H50.8214V167.996H49.5614V157.028ZM50.5334 161.372H52.5254V162.416H50.5334V161.372ZM53.3525 163.292H63.2885V164.312H53.3525V163.292ZM57.6605 163.928H58.9085V167.996H57.6605V163.928ZM54.5645 157.604H62.0525V161.948H54.5645V157.604ZM60.8165 158.6H55.8005V160.952H60.8165V158.6ZM66.9836 158.228H68.0156V159.02C68.0156 161.072 66.8996 162.848 64.9316 163.52L64.3076 162.524C66.0236 161.936 66.9836 160.52 66.9836 159.02V158.228ZM67.2236 158.228H68.2436V159.02C68.2436 160.376 69.1556 161.648 70.8356 162.188L70.2356 163.172C68.2916 162.548 67.2236 160.916 67.2236 159.02V158.228ZM64.6556 157.808H70.5476V158.816H64.6556V157.808ZM71.6996 157.028H72.9596V163.592H71.6996V157.028ZM72.6116 159.692H74.5076V160.736H72.6116V159.692ZM69.4316 163.844C71.6756 163.844 73.0796 164.612 73.0796 165.908C73.0796 167.216 71.6756 167.984 69.4316 167.984C67.1756 167.984 65.7716 167.216 65.7716 165.908C65.7716 164.612 67.1756 163.844 69.4316 163.844ZM69.4316 164.84C67.9076 164.84 67.0196 165.212 67.0196 165.908C67.0196 166.616 67.9076 167 69.4316 167C70.9556 167 71.8316 166.616 71.8316 165.908C71.8316 165.212 70.9556 164.84 69.4316 164.84ZM80.7179 157.928H81.7379V159.728C81.7379 162.284 80.5979 164.732 78.7139 165.692L77.9459 164.684C79.6499 163.856 80.7179 161.756 80.7179 159.728V157.928ZM80.9579 157.928H81.9659V159.728C81.9659 161.684 82.9979 163.676 84.6419 164.492L83.8739 165.488C82.0499 164.54 80.9579 162.2 80.9579 159.728V157.928ZM85.3739 157.028H86.6339V167.996H85.3739V157.028ZM86.3459 161.372H88.3379V162.416H86.3459V161.372ZM89.165 163.292H99.101V164.312H89.165V163.292ZM93.473 163.928H94.721V167.996H93.473V163.928ZM90.377 157.604H97.865V161.948H90.377V157.604ZM96.629 158.6H91.613V160.952H96.629V158.6ZM107.992 157.028H109.252V162.644H107.992V157.028ZM102.064 163.172H109.252V165.956H103.312V167.276H102.088V165.032H108.004V164.144H102.064V163.172ZM102.088 166.904H109.576V167.9H102.088V166.904ZM102.94 157.316H103.984V158.144C103.984 160.172 102.82 161.948 100.84 162.608L100.228 161.612C101.956 161.048 102.94 159.62 102.94 158.144V157.316ZM103.18 157.316H104.212V158.144C104.212 159.572 105.196 160.904 106.888 161.42L106.276 162.404C104.32 161.78 103.18 160.112 103.18 158.144V157.316ZM119.019 157.016H120.279V168.008H119.019V157.016ZM114.435 157.832C116.079 157.832 117.267 159.332 117.267 161.696C117.267 164.06 116.079 165.572 114.435 165.572C112.803 165.572 111.615 164.06 111.615 161.696C111.615 159.332 112.803 157.832 114.435 157.832ZM114.435 158.972C113.475 158.972 112.815 159.992 112.815 161.696C112.815 163.412 113.475 164.444 114.435 164.444C115.395 164.444 116.055 163.412 116.055 161.696C116.055 159.992 115.395 158.972 114.435 158.972ZM127.906 157.832C129.538 157.832 130.714 159.332 130.714 161.696C130.714 164.06 129.538 165.572 127.906 165.572C126.274 165.572 125.098 164.06 125.098 161.696C125.098 159.332 126.274 157.832 127.906 157.832ZM127.906 158.972C126.958 158.972 126.298 159.992 126.298 161.696C126.298 163.412 126.958 164.444 127.906 164.444C128.854 164.444 129.514 163.412 129.514 161.696C129.514 159.992 128.854 158.972 127.906 158.972ZM132.226 157.028H133.486V167.996H132.226V157.028ZM133.198 161.3H135.19V162.344H133.198V161.3ZM143.805 157.028H145.065V162.836H143.805V157.028ZM136.677 157.556H137.925V161.996H136.677V157.556ZM136.677 161.324H137.589C139.461 161.324 141.045 161.216 142.737 160.844L142.893 161.876C141.141 162.248 139.509 162.368 137.589 162.368H136.677V161.324ZM137.925 163.34H139.161V164.624H143.817V163.34H145.065V167.864H137.925V163.34ZM139.161 165.608V166.844H143.817V165.608H139.161ZM154.868 157.028H156.116V167.996H154.868V157.028ZM147.704 158.084H148.952V164.888H147.704V158.084ZM147.704 164.144H148.64C150.272 164.144 152.024 164.024 153.86 163.652L154.004 164.708C152.108 165.104 150.344 165.224 148.64 165.224H147.704V164.144ZM165.343 157.016H166.603V168.008H165.343V157.016ZM166.315 161.228H168.307V162.272H166.315V161.228ZM158.551 164.276H159.439C161.383 164.276 162.823 164.204 164.443 163.904L164.575 164.96C162.895 165.26 161.431 165.32 159.439 165.32H158.551V164.276ZM158.551 158.06H163.651V159.08H159.799V164.756H158.551V158.06ZM170.382 167.168C169.854 167.168 169.458 166.76 169.458 166.196C169.458 165.62 169.854 165.224 170.382 165.224C170.898 165.224 171.306 165.62 171.306 166.196C171.306 166.76 170.898 167.168 170.382 167.168Z" fill="black"/>
<path d="M23.384 184.968H26.06V185.988H23.384V184.968ZM25.376 182.04H26.636V190.056H25.376V182.04ZM19.532 191.76H26.912V192.78H19.532V191.76ZM19.532 189.36H20.78V192.324H19.532V189.36ZM20.228 183.432H21.248V184.224C21.248 186.252 20.132 188.052 18.176 188.748L17.54 187.74C19.244 187.152 20.228 185.712 20.228 184.224V183.432ZM20.48 183.432H21.488V184.224C21.488 185.58 22.424 186.948 24.068 187.524L23.444 188.508C21.548 187.848 20.48 186.12 20.48 184.224V183.432ZM17.9 182.856H23.78V183.864H17.9V182.856ZM28.5791 187.548H38.5151V188.556H28.5791V187.548ZM33.0191 188.184H34.2671V190.608H33.0191V188.184ZM29.8271 182.52H37.2311V186.468H29.8271V182.52ZM35.9951 183.516H31.0631V185.472H35.9951V183.516ZM29.7911 191.76H37.4111V192.78H29.7911V191.76ZM29.7911 189.612H31.0391V192.108H29.7911V189.612ZM44.9221 183.96H47.9221V184.968H44.9221V183.96ZM44.9221 186.324H47.9581V187.332H44.9221V186.324ZM47.4541 182.04H48.7141V190.14H47.4541V182.04ZM41.5741 191.76H48.9661V192.78H41.5741V191.76ZM41.5741 189.348H42.8341V192.312H41.5741V189.348ZM40.1221 182.76H41.3701V184.572H43.9501V182.76H45.1861V188.34H40.1221V182.76ZM41.3701 185.544V187.332H43.9501V185.544H41.3701ZM51.1252 183.528H60.0892V184.536H51.1252V183.528ZM50.6692 190.776H60.6052V191.796H50.6692V190.776ZM54.9892 189.156H56.2372V191.172H54.9892V189.156ZM55.6012 185.16C57.8452 185.16 59.2492 185.94 59.2492 187.272C59.2492 188.604 57.8452 189.384 55.6012 189.384C53.3572 189.384 51.9652 188.604 51.9652 187.272C51.9652 185.94 53.3572 185.16 55.6012 185.16ZM55.6012 186.144C54.1012 186.144 53.2372 186.54 53.2372 187.272C53.2372 188.004 54.1012 188.388 55.6012 188.388C57.1012 188.388 57.9652 188.004 57.9652 187.272C57.9652 186.54 57.1012 186.144 55.6012 186.144ZM54.9892 182.184H56.2372V184.152H54.9892V182.184ZM64.2883 182.928H65.3083V184.728C65.3083 187.284 64.1683 189.732 62.2843 190.692L61.5163 189.684C63.2203 188.856 64.2883 186.756 64.2883 184.728V182.928ZM64.5283 182.928H65.5363V184.728C65.5363 186.684 66.5683 188.676 68.2122 189.492L67.4443 190.488C65.6203 189.54 64.5283 187.2 64.5283 184.728V182.928ZM68.9443 182.028H70.2043V192.996H68.9443V182.028ZM69.9163 186.372H71.9083V187.416H69.9163V186.372ZM77.5786 184.104H78.5266V184.452C78.5266 186.216 77.7226 187.8 76.0666 188.46L75.4786 187.524C76.8586 186.984 77.5786 185.748 77.5786 184.452V184.104ZM77.8306 184.104H78.7666V184.452C78.7666 185.664 79.4986 186.828 80.8666 187.332L80.3026 188.268C78.6346 187.656 77.8306 186.132 77.8306 184.452V184.104ZM75.7306 183.384H80.5786V184.38H75.7306V183.384ZM77.5786 182.148H78.7666V183.816H77.5786V182.148ZM83.5306 182.04H84.7186V188.76H83.5306V182.04ZM81.9586 184.872H83.8786V185.892H81.9586V184.872ZM81.2146 182.22H82.3906V188.7H81.2146V182.22ZM77.2906 189.288H84.7186V192.996H83.4706V190.296H77.2906V189.288ZM94.2577 182.04H95.5177V188.268H94.2577V182.04ZM88.3417 188.82H95.5177V192.864H88.3417V188.82ZM94.2817 189.816H89.5777V191.856H94.2817V189.816ZM89.6017 182.58C91.2817 182.58 92.5057 183.636 92.5057 185.172C92.5057 186.684 91.2817 187.764 89.6017 187.764C87.9217 187.764 86.6857 186.684 86.6857 185.172C86.6857 183.636 87.9217 182.58 89.6017 182.58ZM89.6017 183.624C88.6297 183.624 87.9097 184.236 87.9097 185.172C87.9097 186.108 88.6297 186.708 89.6017 186.708C90.5737 186.708 91.2817 186.108 91.2817 185.172C91.2817 184.236 90.5737 183.624 89.6017 183.624ZM104.769 182.028H106.017V192.996H104.769V182.028ZM105.729 186.432H107.721V187.476H105.729V186.432ZM97.4608 183.72H103.893V184.728H97.4608V183.72ZM100.713 185.52C102.273 185.52 103.425 186.576 103.425 188.076C103.425 189.588 102.273 190.644 100.713 190.644C99.1408 190.644 97.9888 189.588 97.9888 188.076C97.9888 186.576 99.1408 185.52 100.713 185.52ZM100.713 186.552C99.8248 186.552 99.1888 187.152 99.1888 188.076C99.1888 189 99.8248 189.612 100.713 189.612C101.589 189.612 102.225 189 102.225 188.076C102.225 187.152 101.589 186.552 100.713 186.552ZM100.065 182.184H101.325V184.14H100.065V182.184ZM112.976 186.192H114.92V187.212H112.976V186.192ZM116.72 182.028H117.92V192.996H116.72V182.028ZM114.512 182.232H115.7V192.468H114.512V182.232ZM111.02 182.88C112.46 182.88 113.384 184.368 113.384 186.768C113.384 189.18 112.46 190.668 111.02 190.668C109.592 190.668 108.668 189.18 108.668 186.768C108.668 184.368 109.592 182.88 111.02 182.88ZM111.02 184.056C110.276 184.056 109.82 185.04 109.82 186.768C109.82 188.496 110.276 189.48 111.02 189.48C111.776 189.48 112.232 188.496 112.232 186.768C112.232 185.04 111.776 184.056 111.02 184.056ZM122.282 187.488H132.218V188.496H122.282V187.488ZM126.698 188.136H127.97V190.572H126.698V188.136ZM123.506 191.748H131.126V192.78H123.506V191.748ZM123.506 189.54H124.766V192.024H123.506V189.54ZM127.238 182.268C129.578 182.268 131.126 183.132 131.126 184.512C131.126 185.88 129.578 186.744 127.238 186.744C124.898 186.744 123.35 185.88 123.35 184.512C123.35 183.132 124.898 182.268 127.238 182.268ZM127.238 183.276C125.702 183.276 124.694 183.732 124.694 184.512C124.694 185.28 125.702 185.724 127.238 185.724C128.786 185.724 129.782 185.28 129.782 184.512C129.782 183.732 128.786 183.276 127.238 183.276ZM138.253 183.54H141.553V184.56H138.253V183.54ZM138.253 186.024H141.553V187.044H138.253V186.024ZM136.333 182.652C137.953 182.652 139.189 183.756 139.189 185.292C139.189 186.828 137.953 187.932 136.333 187.932C134.701 187.932 133.477 186.828 133.477 185.292C133.477 183.756 134.701 182.652 136.333 182.652ZM136.333 183.72C135.385 183.72 134.677 184.332 134.677 185.292C134.677 186.24 135.385 186.864 136.333 186.864C137.281 186.864 137.989 186.24 137.989 185.292C137.989 184.332 137.281 183.72 136.333 183.72ZM141.157 182.028H142.417V188.484H141.157V182.028ZM138.757 188.736C141.037 188.736 142.453 189.516 142.453 190.86C142.453 192.204 141.037 192.984 138.757 192.984C136.477 192.984 135.061 192.204 135.061 190.86C135.061 189.516 136.477 188.736 138.757 188.736ZM138.757 189.708C137.197 189.708 136.297 190.116 136.297 190.86C136.297 191.592 137.197 192 138.757 192C140.317 192 141.217 191.592 141.217 190.86C141.217 190.116 140.317 189.708 138.757 189.708ZM145.176 186.624H150.84V187.644H145.176V186.624ZM147.348 187.44H148.608V189.876H147.348V187.44ZM145.176 183.036H150.78V184.044H146.436V186.96H145.176V183.036ZM152.136 182.016H153.396V193.008H152.136V182.016ZM144.576 190.728L144.42 189.696C146.544 189.696 149.184 189.672 151.476 189.408L151.572 190.332C149.184 190.704 146.64 190.74 144.576 190.728ZM156.695 185.172H164.207V186.18H156.695V185.172ZM155.399 187.5H165.335V188.52H155.399V187.5ZM156.695 182.424H157.943V185.676H156.695V182.424ZM156.611 191.724H164.267V192.744H156.611V191.724ZM156.611 189.516H157.859V192H156.611V189.516ZM171.726 182.928H172.746V184.728C172.746 187.284 171.606 189.732 169.722 190.692L168.954 189.684C170.658 188.856 171.726 186.756 171.726 184.728V182.928ZM171.966 182.928H172.974V184.728C172.974 186.684 174.006 188.676 175.65 189.492L174.882 190.488C173.058 189.54 171.966 187.2 171.966 184.728V182.928ZM176.382 182.028H177.642V192.996H176.382V182.028ZM177.354 186.372H179.346V187.416H177.354V186.372ZM180.173 188.292H190.109V189.312H180.173V188.292ZM184.481 188.928H185.729V192.996H184.481V188.928ZM181.385 182.604H188.873V186.948H181.385V182.604ZM187.637 183.6H182.621V185.952H187.637V183.6ZM199 182.028H200.26V187.644H199V182.028ZM193.072 188.172H200.26V190.956H194.32V192.276H193.096V190.032H199.012V189.144H193.072V188.172ZM193.096 191.904H200.584V192.9H193.096V191.904ZM193.948 182.316H194.992V183.144C194.992 185.172 193.828 186.948 191.848 187.608L191.236 186.612C192.964 186.048 193.948 184.62 193.948 183.144V182.316ZM194.188 182.316H195.22V183.144C195.22 184.572 196.204 185.904 197.896 186.42L197.284 187.404C195.328 186.78 194.188 185.112 194.188 183.144V182.316ZM210.039 182.028H211.299V187.92H210.039V182.028ZM204.135 188.436H205.371V189.624H210.051V188.436H211.299V192.864H204.135V188.436ZM205.371 190.608V191.856H210.051V190.608H205.371ZM205.383 182.52C207.063 182.52 208.287 183.564 208.287 185.076C208.287 186.576 207.063 187.632 205.383 187.632C203.703 187.632 202.467 186.576 202.467 185.076C202.467 183.564 203.703 182.52 205.383 182.52ZM205.383 183.564C204.399 183.564 203.691 184.164 203.691 185.076C203.691 185.988 204.399 186.588 205.383 186.588C206.367 186.588 207.063 185.988 207.063 185.076C207.063 184.164 206.367 183.564 205.383 183.564ZM221.102 182.028H222.35V192.996H221.102V182.028ZM213.938 183.084H215.186V189.888H213.938V183.084ZM213.938 189.144H214.874C216.506 189.144 218.258 189.024 220.094 188.652L220.238 189.708C218.342 190.104 216.578 190.224 214.874 190.224H213.938V189.144ZM231.577 182.016H232.837V193.008H231.577V182.016ZM232.549 186.228H234.541V187.272H232.549V186.228ZM224.785 189.276H225.673C227.617 189.276 229.057 189.204 230.677 188.904L230.809 189.96C229.129 190.26 227.665 190.32 225.673 190.32H224.785V189.276ZM224.785 183.06H229.885V184.08H226.033V189.756H224.785V183.06ZM236.616 192.168C236.088 192.168 235.692 191.76 235.692 191.196C235.692 190.62 236.088 190.224 236.616 190.224C237.132 190.224 237.54 190.62 237.54 191.196C237.54 191.76 237.132 192.168 236.616 192.168Z" fill="black"/>
<path d="M18.152 11.864H25.064V15.288H18.152V11.864ZM22.824 4.248H27.08V25.848H22.824V4.248ZM7.528 29.944H27.752V33.336H7.528V29.944ZM7.528 24.024H11.784V31.96H7.528V24.024ZM9.128 8.12H12.584V9.976C12.584 15.544 9.96 20.696 4.264 22.584L2.12 19.192C7.016 17.592 9.128 13.72 9.128 9.976V8.12ZM10.024 8.12H13.448V9.976C13.448 13.432 15.464 17.112 20.136 18.68L18.056 22.008C12.552 20.184 10.024 15.256 10.024 9.976V8.12ZM3.272 6.232H19.208V9.592H3.272V6.232ZM31.7175 18.84H58.5335V22.232H31.7175V18.84ZM43.3335 20.984H47.6215V27.224H43.3335V20.984ZM35.0135 5.464H55.1415V16.472H35.0135V5.464ZM50.9495 8.792H39.1735V13.144H50.9495V8.792ZM34.8215 29.944H55.5895V33.336H34.8215V29.944ZM34.8215 24.728H39.0455V31.064H34.8215V24.728ZM75.683 9.176H83.235V12.536H75.683V9.176ZM75.683 15.544H83.363V18.904H75.683V15.544ZM81.699 4.248H85.955V26.104H81.699V4.248ZM66.339 29.944H86.595V33.336H66.339V29.944ZM66.339 23.96H70.627V31.896H66.339V23.96ZM62.403 6.168H66.627V10.68H72.259V6.168H76.419V21.464H62.403V6.168ZM66.627 13.912V18.104H72.259V13.912H66.627ZM91.7445 7.896H116.193V11.288H91.7445V7.896ZM90.6245 27.448H117.441V30.872H90.6245V27.448ZM101.857 23.544H106.081V28.792H101.857V23.544ZM103.937 12.568C110.113 12.568 113.985 14.712 113.985 18.36C113.985 22.008 110.113 24.152 103.937 24.152C97.7605 24.152 93.8885 22.008 93.8885 18.36C93.8885 14.712 97.7605 12.568 103.937 12.568ZM103.937 15.864C100.225 15.864 98.2405 16.664 98.2405 18.36C98.2405 20.056 100.225 20.824 103.937 20.824C107.649 20.824 109.633 20.056 109.633 18.36C109.633 16.664 107.649 15.864 103.937 15.864ZM101.857 4.536H106.081V10.008H101.857V4.536ZM126.686 6.488H130.142V10.808C130.142 18.136 127.582 25.016 121.982 27.768L119.422 24.344C124.414 22.008 126.686 16.312 126.686 10.808V6.488ZM127.55 6.488H130.942V10.808C130.942 16.12 133.054 21.528 137.79 23.832L135.23 27.224C129.886 24.504 127.55 17.912 127.55 10.808V6.488ZM138.974 4.216H143.262V33.848H138.974V4.216ZM142.302 15.608H147.55V19.16H142.302V15.608ZM168.412 4.184H172.7V33.816H168.412V4.184ZM171.58 15.512H176.796V19H171.58V15.512ZM160.636 7.256H164.796C164.796 16.152 161.404 23.768 151.548 28.728L149.18 25.496C156.956 21.464 160.636 16.024 160.636 7.992V7.256ZM150.812 7.256H162.812V10.68H150.812V7.256ZM9.48 46.256H13V48.112C13 53.712 10.28 58.768 4.584 60.592L2.408 57.296C7.336 55.696 9.48 51.824 9.48 48.112V46.256ZM10.344 46.256H13.832V48.112C13.832 51.632 15.944 55.248 20.776 56.784L18.6 60.08C13.032 58.32 10.344 53.456 10.344 48.112V46.256ZM22.632 43.216H26.92V61.072H22.632V43.216ZM6.696 62.384H26.92V72.848H22.632V65.776H6.696V62.384ZM3.528 44.944H19.656V48.304H3.528V44.944ZM47.7495 49.84H53.3815V53.264H47.7495V49.84ZM52.2615 43.216H56.5175V59.408H52.2615V43.216ZM36.8375 60.624H41.0615V63.312H52.2935V60.624H56.5175V72.528H36.8375V60.624ZM41.0615 66.608V69.136H52.2935V66.608H41.0615ZM38.5655 45.488H42.0215V47.376C42.0215 52.944 39.3975 58.096 33.7015 59.984L31.5575 56.592C36.4535 54.992 38.5655 51.12 38.5655 47.376V45.488ZM39.4615 45.488H42.8855V47.376C42.8855 50.832 44.9015 54.512 49.5735 56.08L47.4935 59.376C41.9895 57.552 39.4615 52.656 39.4615 47.376V45.488ZM32.7095 44.56H48.6455V47.952H32.7095V44.56ZM75.0573 44.816H78.5453V47.44C78.5453 53.328 75.9853 58.512 70.3533 60.464L68.0813 57.104C73.0413 55.44 75.0573 51.472 75.0573 47.44V44.816ZM75.9213 44.816H79.3773V47.856C79.3773 51.408 81.3613 54.864 86.0013 56.304L83.7933 59.6C78.4493 57.808 75.9213 53.2 75.9213 47.856V44.816ZM87.6333 43.216H91.8893V60.72H87.6333V43.216ZM90.7053 50.064H95.8253V53.584H90.7053V50.064ZM82.2253 61.392C88.3693 61.392 92.2413 63.536 92.2413 67.12C92.2413 70.736 88.3693 72.848 82.2253 72.848C76.0493 72.848 72.1773 70.736 72.1773 67.12C72.1773 63.536 76.0493 61.392 82.2253 61.392ZM82.2253 64.688C78.4493 64.688 76.4013 65.488 76.4013 67.12C76.4013 68.784 78.4493 69.552 82.2253 69.552C86.0013 69.552 88.0173 68.784 88.0173 67.12C88.0173 65.488 86.0013 64.688 82.2253 64.688ZM117.071 43.216H121.327V59.824H117.071V43.216ZM120.143 49.872H125.263V53.328H120.143V49.872ZM99.1188 55.376H101.583C108.015 55.376 111.215 55.216 114.767 54.48L115.183 57.84C111.567 58.64 108.175 58.8 101.583 58.8H99.1188V55.376ZM99.1188 45.04H112.271V48.432H103.343V57.36H99.1188V45.04ZM102.063 61.104H121.327V72.528H102.063V61.104ZM117.167 64.464H106.255V69.168H117.167V64.464ZM146.508 43.216H150.764V60.56H146.508V43.216ZM149.068 50.32H154.7V53.84H149.068V50.32ZM131.5 61.712H135.692V63.952H146.54V61.712H150.764V72.528H131.5V61.712ZM135.692 67.152V69.2H146.54V67.152H135.692ZM127.436 45.776H144.876V49.136H127.436V45.776ZM136.172 49.936C140.46 49.936 143.436 52.048 143.436 55.184C143.436 58.32 140.46 60.432 136.172 60.432C131.852 60.432 128.876 58.32 128.876 55.184C128.876 52.048 131.852 49.936 136.172 49.936ZM136.172 53.04C134.252 53.04 132.972 53.808 132.972 55.184C132.972 56.592 134.252 57.328 136.172 57.328C138.06 57.328 139.372 56.592 139.372 55.184C139.372 53.808 138.06 53.04 136.172 53.04ZM134.028 42.992H138.284V47.664H134.028V42.992ZM177.386 43.216H181.642V72.848H177.386V43.216ZM158.442 46.032H162.666V64.432H158.442V46.032ZM158.442 61.936H161.066C165.386 61.936 170.186 61.616 175.082 60.656L175.562 64.176C170.474 65.232 165.578 65.552 161.066 65.552H158.442V61.936ZM205.255 43.184H209.543V72.912H205.255V43.184ZM208.583 54.16H213.831V57.648H208.583V54.16ZM187.463 62.256H189.959C194.951 62.256 198.887 62.096 203.239 61.328L203.655 64.848C199.175 65.648 195.111 65.776 189.959 65.776H187.463V62.256ZM187.463 45.936H201.287V49.36H191.687V63.952H187.463V45.936ZM219.23 70.2955C218.48 70.2955 217.836 70.0303 217.298 69.5C216.768 68.9621 216.503 68.3182 216.503 67.5682C216.503 66.8258 216.768 66.1894 217.298 65.6591C217.836 65.1288 218.48 64.8636 219.23 64.8636C219.957 64.8636 220.594 65.1288 221.139 65.6591C221.685 66.1894 221.957 66.8258 221.957 67.5682C221.957 68.0682 221.829 68.5265 221.571 68.9432C221.321 69.3523 220.991 69.6818 220.582 69.9318C220.173 70.1742 219.723 70.2955 219.23 70.2955Z" fill="black"/>
<rect x="1" y="24" width="146" height="11" fill="#172958" fill-opacity="0.3"/>
<path d="M7.104 97.248H8.322C8.322 100.468 6.012 102.736 2.288 103.73L1.84 102.806C5.13 101.938 7.104 100.104 7.104 97.766V97.248ZM2.498 97.248H7.776V98.186H2.498V97.248ZM10.898 96.436H12.074V103.576H10.898V96.436ZM3.884 104.192H12.074V108.924H3.884V104.192ZM10.926 105.13H5.032V107.972H10.926V105.13ZM15.0689 104.99H15.8949C17.8969 104.99 19.0869 104.948 20.5009 104.668L20.6269 105.634C19.1569 105.928 17.9249 105.97 15.8949 105.97H15.0689V104.99ZM15.0689 97.878H20.0529V98.83H16.1749V105.354H15.0689V97.878ZM15.8389 101.224H19.8569V102.162H15.8389V101.224ZM24.2109 96.436H25.3309V109.092H24.2109V96.436ZM22.2089 101.504H24.6309V102.47H22.2089V101.504ZM21.4249 96.702H22.5309V108.462H21.4249V96.702ZM30.2718 100.72H31.4198V103.114H30.2718V100.72ZM34.9198 100.72H36.0678V103.114H34.9198V100.72ZM27.4438 102.694H38.8818V103.632H27.4438V102.694ZM33.1558 104.584C35.8718 104.584 37.4958 105.382 37.4958 106.824C37.4958 108.266 35.8718 109.078 33.1558 109.078C30.4398 109.078 28.8158 108.266 28.8158 106.824C28.8158 105.382 30.4398 104.584 33.1558 104.584ZM33.1558 105.48C31.1818 105.48 29.9918 105.97 29.9918 106.824C29.9918 107.692 31.1818 108.168 33.1558 108.168C35.1438 108.168 36.3198 107.692 36.3198 106.824C36.3198 105.97 35.1438 105.48 33.1558 105.48ZM33.1698 96.66C35.9138 96.66 37.6218 97.542 37.6218 99.026C37.6218 100.496 35.9138 101.364 33.1698 101.364C30.4118 101.364 28.7178 100.496 28.7178 99.026C28.7178 97.542 30.4118 96.66 33.1698 96.66ZM33.1698 97.57C31.1538 97.57 29.9078 98.102 29.9078 99.026C29.9078 99.936 31.1538 100.468 33.1698 100.468C35.1858 100.468 36.4318 99.936 36.4318 99.026C36.4318 98.102 35.1858 97.57 33.1698 97.57ZM50.1736 99.922H53.3656V100.874H50.1736V99.922ZM52.7076 96.45H53.8696V105.718H52.7076V96.45ZM45.7916 107.86H54.2196V108.812H45.7916V107.86ZM45.7916 104.906H46.9536V108.35H45.7916V104.906ZM46.6876 98.018H47.6396V99.04C47.6396 101.336 46.2116 103.324 44.0976 104.108L43.4956 103.184C45.3856 102.512 46.6876 100.832 46.6876 99.04V98.018ZM46.9116 98.018H47.8496V99.026C47.8496 100.664 49.0816 102.26 50.9156 102.904L50.3276 103.814C48.2696 103.072 46.9116 101.168 46.9116 99.026V98.018ZM43.8596 97.472H50.6216V98.41H43.8596V97.472ZM56.3325 102.904H67.7985V103.856H56.3325V102.904ZM61.5685 103.492H62.7305V106.404H61.5685V103.492ZM57.8025 97.024H66.3145V101.476H57.8025V97.024ZM65.1665 97.962H58.9365V100.538H65.1665V97.962ZM57.7885 107.86H66.5245V108.812H57.7885V107.86ZM57.7885 105.186H58.9365V108.196H57.7885V105.186ZM78.3903 98.76H82.0443V99.698H78.3903V98.76ZM78.3903 101.49H82.0723V102.428H78.3903V101.49ZM81.5963 96.45H82.7583V105.816H81.5963V96.45ZM74.6243 107.86H83.0663V108.812H74.6243V107.86ZM74.6243 104.906H75.7863V108.35H74.6243V104.906ZM72.9723 97.276H74.1203V99.516H77.5503V97.276H78.6843V103.66H72.9723V97.276ZM74.1203 100.426V102.708H77.5503V100.426H74.1203ZM85.7952 98.284H96.0712V99.236H85.7952V98.284ZM85.2352 106.656H96.7012V107.622H85.2352V106.656ZM90.3732 104.654H91.5212V107.034H90.3732V104.654ZM90.9332 100.09C93.4952 100.09 95.0772 100.972 95.0772 102.498C95.0772 104.024 93.4952 104.906 90.9332 104.906C88.3852 104.906 86.8032 104.024 86.8032 102.498C86.8032 100.972 88.3852 100.09 90.9332 100.09ZM90.9332 101C89.0992 101 87.9652 101.56 87.9652 102.498C87.9652 103.436 89.0992 103.982 90.9332 103.982C92.7812 103.982 93.9012 103.436 93.9012 102.498C93.9012 101.56 92.7812 101 90.9332 101ZM90.3732 96.646H91.5212V98.872H90.3732V96.646ZM101.208 97.528H102.16V99.796C102.16 102.596 100.648 105.326 98.6461 106.39L97.9321 105.466C99.7661 104.542 101.208 102.106 101.208 99.796V97.528ZM101.418 97.528H102.356V99.796C102.356 102.022 103.77 104.332 105.562 105.228L104.848 106.152C102.888 105.102 101.418 102.512 101.418 99.796V97.528ZM106.668 96.436H107.844V109.092H106.668V96.436ZM107.564 101.56H109.916V102.54H107.564V101.56ZM114.185 102.82H115.347V105.844H114.185V102.82ZM114.759 97.248C116.705 97.248 118.105 98.466 118.105 100.23C118.105 101.994 116.705 103.212 114.759 103.212C112.813 103.212 111.413 101.994 111.413 100.23C111.413 98.466 112.813 97.248 114.759 97.248ZM114.759 98.242C113.471 98.242 112.547 99.054 112.547 100.23C112.547 101.406 113.471 102.218 114.759 102.218C116.047 102.218 116.971 101.406 116.971 100.23C116.971 99.054 116.047 98.242 114.759 98.242ZM119.547 96.436H120.709V109.092H119.547V96.436ZM120.373 101.644H122.711V102.624H120.373V101.644ZM111.007 106.362L110.839 105.396C113.121 105.382 116.173 105.368 118.749 105.018L118.847 105.886C116.173 106.334 113.219 106.362 111.007 106.362ZM133.709 99.922H136.901V100.874H133.709V99.922ZM136.243 96.45H137.405V105.718H136.243V96.45ZM129.327 107.86H137.755V108.812H129.327V107.86ZM129.327 104.906H130.489V108.35H129.327V104.906ZM130.223 98.018H131.175V99.04C131.175 101.336 129.747 103.324 127.633 104.108L127.031 103.184C128.921 102.512 130.223 100.832 130.223 99.04V98.018ZM130.447 98.018H131.385V99.026C131.385 100.664 132.617 102.26 134.451 102.904L133.863 103.814C131.805 103.072 130.447 101.168 130.447 99.026V98.018ZM127.395 97.472H134.157V98.41H127.395V97.472ZM143.158 103.982H144.32V106.04H143.158V103.982ZM148.478 96.436H149.64V109.092H148.478V96.436ZM149.262 101.812H151.6V102.792H149.262V101.812ZM139.896 106.684L139.728 105.718C141.996 105.718 145.09 105.69 147.708 105.312L147.806 106.18C145.076 106.67 142.108 106.684 139.896 106.684ZM139.938 97.962H147.512V98.9H139.938V97.962ZM143.732 99.642C145.496 99.642 146.714 100.566 146.714 101.98C146.714 103.408 145.496 104.318 143.732 104.318C141.968 104.318 140.764 103.408 140.764 101.98C140.764 100.566 141.968 99.642 143.732 99.642ZM143.732 100.538C142.598 100.538 141.856 101.112 141.856 101.98C141.856 102.848 142.598 103.422 143.732 103.422C144.866 103.422 145.622 102.848 145.622 101.98C145.622 101.112 144.866 100.538 143.732 100.538ZM143.158 96.45H144.32V98.592H143.158V96.45ZM155.827 97.094H156.793V98.382C156.793 100.818 155.421 102.834 153.307 103.66L152.691 102.722C154.595 102.022 155.827 100.314 155.827 98.382V97.094ZM156.037 97.094H156.989V98.466C156.989 100.174 158.249 101.756 160.069 102.386L159.453 103.296C157.423 102.54 156.037 100.664 156.037 98.466V97.094ZM161.413 96.436H162.575V104.108H161.413V96.436ZM162.253 99.698H164.451V100.678H162.253V99.698ZM158.543 104.458C161.133 104.458 162.701 105.312 162.701 106.768C162.701 108.224 161.133 109.064 158.543 109.064C155.953 109.064 154.385 108.224 154.385 106.768C154.385 105.312 155.953 104.458 158.543 104.458ZM158.543 105.382C156.667 105.382 155.519 105.886 155.519 106.768C155.519 107.65 156.667 108.154 158.543 108.154C160.419 108.154 161.567 107.65 161.567 106.768C161.567 105.886 160.419 105.382 158.543 105.382ZM174.291 96.436H175.453V103.604H174.291V96.436ZM175.131 99.53H177.329V100.482H175.131V99.53ZM166.213 101.924H167.193C169.797 101.924 171.267 101.854 172.961 101.504L173.087 102.456C171.351 102.806 169.853 102.89 167.193 102.89H166.213V101.924ZM166.213 97.276H171.785V98.228H167.361V102.47H166.213V97.276ZM167.501 104.276H175.453V108.924H167.501V104.276ZM174.319 105.214H168.635V107.972H174.319V105.214ZM182.307 97.248H188.201V102.428H182.307V97.248ZM187.081 98.186H183.427V101.504H187.081V98.186ZM190.847 96.436H192.009V103.702H190.847V96.436ZM187.417 105.2H188.411V105.438C188.411 107.258 186.157 108.714 183.595 109.05L183.203 108.154C185.401 107.902 187.417 106.698 187.417 105.438V105.2ZM187.585 105.2H188.593V105.438C188.593 106.656 190.553 107.888 192.751 108.154L192.359 109.05C189.783 108.7 187.585 107.216 187.585 105.438V105.2ZM183.707 104.556H192.303V105.466H183.707V104.556ZM187.417 103.338H188.593V104.962H187.417V103.338ZM203.441 104.374C206.017 104.374 207.599 105.242 207.599 106.726C207.599 108.21 206.017 109.078 203.441 109.078C200.865 109.078 199.283 108.21 199.283 106.726C199.283 105.242 200.865 104.374 203.441 104.374ZM203.441 105.312C201.565 105.312 200.417 105.83 200.417 106.726C200.417 107.636 201.565 108.154 203.441 108.154C205.317 108.154 206.465 107.636 206.465 106.726C206.465 105.83 205.317 105.312 203.441 105.312ZM206.311 96.436H207.473V104.038H206.311V96.436ZM207.151 99.614H209.349V100.594H207.151V99.614ZM198.177 97.234H199.325V99.124H202.895V97.234H204.029V103.072H198.177V97.234ZM199.325 100.048V102.134H202.895V100.048H199.325ZM210.524 102.904H221.99V103.856H210.524V102.904ZM215.76 103.492H216.922V106.404H215.76V103.492ZM211.994 97.024H220.506V101.476H211.994V97.024ZM219.358 97.962H213.128V100.538H219.358V97.962ZM211.98 107.86H220.716V108.812H211.98V107.86ZM211.98 105.186H213.128V108.196H211.98V105.186ZM226.483 97.094H227.449V98.382C227.449 100.818 226.077 102.834 223.963 103.66L223.347 102.722C225.251 102.022 226.483 100.314 226.483 98.382V97.094ZM226.693 97.094H227.645V98.466C227.645 100.174 228.905 101.756 230.725 102.386L230.109 103.296C228.079 102.54 226.693 100.664 226.693 98.466V97.094ZM232.069 96.436H233.231V104.108H232.069V96.436ZM232.909 99.698H235.107V100.678H232.909V99.698ZM229.199 104.458C231.789 104.458 233.357 105.312 233.357 106.768C233.357 108.224 231.789 109.064 229.199 109.064C226.609 109.064 225.041 108.224 225.041 106.768C225.041 105.312 226.609 104.458 229.199 104.458ZM229.199 105.382C227.323 105.382 226.175 105.886 226.175 106.768C226.175 107.65 227.323 108.154 229.199 108.154C231.075 108.154 232.223 107.65 232.223 106.768C232.223 105.886 231.075 105.382 229.199 105.382ZM244.948 96.436H246.11V103.604H244.948V96.436ZM245.788 99.53H247.986V100.482H245.788V99.53ZM236.87 101.924H237.85C240.454 101.924 241.924 101.854 243.618 101.504L243.744 102.456C242.008 102.806 240.51 102.89 237.85 102.89H236.87V101.924ZM236.87 97.276H242.442V98.228H238.018V102.47H236.87V97.276ZM238.158 104.276H246.11V108.924H238.158V104.276ZM244.976 105.214H239.292V107.972H244.976V105.214ZM258.359 96.422H259.521V109.106H258.359V96.422ZM252.843 97.402C254.719 97.402 256.063 99.124 256.063 101.812C256.063 104.514 254.719 106.236 252.843 106.236C250.981 106.236 249.637 104.514 249.637 101.812C249.637 99.124 250.981 97.402 252.843 97.402ZM252.843 98.452C251.611 98.452 250.743 99.768 250.743 101.812C250.743 103.87 251.611 105.214 252.843 105.214C254.089 105.214 254.943 103.87 254.943 101.812C254.943 99.768 254.089 98.452 252.843 98.452ZM10.254 116.422H11.43V129.092H10.254V116.422ZM11.108 121.56H13.446V122.526H11.108V121.56ZM7.02 117.794H8.154C8.154 121.392 6.502 124.64 2.414 126.698L1.77 125.802C5.27 124.024 7.02 121.322 7.02 117.976V117.794ZM2.358 117.794H7.622V118.746H2.358V117.794ZM16.1329 119.95H24.7149V120.902H16.1329V119.95ZM16.1329 116.688H17.2809V120.37H16.1329V116.688ZM14.5789 122.372H26.0169V123.31H14.5789V122.372ZM20.2769 124.444C22.9789 124.444 24.6169 125.27 24.6169 126.754C24.6169 128.21 22.9789 129.05 20.2769 129.05C17.5749 129.05 15.9369 128.21 15.9369 126.754C15.9369 125.27 17.5749 124.444 20.2769 124.444ZM20.2769 125.354C18.3029 125.354 17.1129 125.858 17.1129 126.754C17.1129 127.622 18.3029 128.126 20.2769 128.126C22.2649 128.126 23.4409 127.622 23.4409 126.754C23.4409 125.858 22.2649 125.354 20.2769 125.354ZM36.1098 116.436H37.2718V123.786H36.1098V116.436ZM36.7678 119.656H39.1478V120.636H36.7678V119.656ZM29.3198 124.346H30.4538V125.69H36.1238V124.346H37.2718V128.924H29.3198V124.346ZM30.4538 126.586V127.986H36.1238V126.586H30.4538ZM27.4858 117.724H34.9618V118.676H27.4858V117.724ZM31.2238 119.25C33.0298 119.25 34.2478 120.132 34.2478 121.476C34.2478 122.82 33.0298 123.702 31.2238 123.702C29.4038 123.702 28.1858 122.82 28.1858 121.476C28.1858 120.132 29.4038 119.25 31.2238 119.25ZM31.2238 120.132C30.0618 120.132 29.2918 120.664 29.2918 121.476C29.2918 122.288 30.0618 122.82 31.2238 122.82C32.3578 122.82 33.1418 122.288 33.1418 121.476C33.1418 120.664 32.3578 120.132 31.2238 120.132ZM30.6358 116.31H31.7978V118.242H30.6358V116.31ZM49.5347 116.436H50.6967V129.092H49.5347V116.436ZM41.1347 117.668H42.2827V125.508H41.1347V117.668ZM41.1347 124.822H42.1707C44.0887 124.822 46.0907 124.682 48.2327 124.234L48.3727 125.228C46.1747 125.676 44.1727 125.83 42.1707 125.83H41.1347V124.822ZM61.7696 116.422H62.9456V129.106H61.7696V116.422ZM62.6656 121.42H65.0176V122.4H62.6656V121.42ZM53.7476 124.976H54.7416C57.0796 124.976 58.7176 124.892 60.6076 124.542L60.7336 125.522C58.7876 125.886 57.1216 125.956 54.7416 125.956H53.7476V124.976ZM53.7476 117.654H59.6276V118.606H54.8956V125.41H53.7476V117.654ZM67.3265 128.196C66.8225 128.196 66.4165 127.79 66.4165 127.216C66.4165 126.628 66.8225 126.236 67.3265 126.236C67.8445 126.236 68.2645 126.628 68.2645 127.216C68.2645 127.79 67.8445 128.196 67.3265 128.196Z" fill="#474747"/>
</svg>
