<svg width="323" height="132" viewBox="0 0 323 132" fill="none" xmlns="http://www.w3.org/2000/svg">
<path d="M17.152 11.864H24.064V15.288H17.152V11.864ZM21.824 4.248H26.08V25.848H21.824V4.248ZM6.528 29.944H26.752V33.336H6.528V29.944ZM6.528 24.024H10.784V31.96H6.528V24.024ZM8.128 8.12H11.584V9.976C11.584 15.544 8.96 20.696 3.264 22.584L1.12 19.192C6.016 17.592 8.128 13.72 8.128 9.976V8.12ZM9.024 8.12H12.448V9.976C12.448 13.432 14.464 17.112 19.136 18.68L17.056 22.008C11.552 20.184 9.024 15.256 9.024 9.976V8.12ZM2.272 6.232H18.208V9.592H2.272V6.232ZM30.7175 18.84H57.5335V22.232H30.7175V18.84ZM42.3335 20.984H46.6215V27.224H42.3335V20.984ZM34.0135 5.464H54.1415V16.472H34.0135V5.464ZM49.9495 8.792H38.1735V13.144H49.9495V8.792ZM33.8215 29.944H54.5895V33.336H33.8215V29.944ZM33.8215 24.728H38.0455V31.064H33.8215V24.728ZM74.683 9.176H82.235V12.536H74.683V9.176ZM74.683 15.544H82.363V18.904H74.683V15.544ZM80.699 4.248H84.955V26.104H80.699V4.248ZM65.339 29.944H85.595V33.336H65.339V29.944ZM65.339 23.96H69.627V31.896H65.339V23.96ZM61.403 6.168H65.627V10.68H71.259V6.168H75.419V21.464H61.403V6.168ZM65.627 13.912V18.104H71.259V13.912H65.627ZM90.7445 7.896H115.193V11.288H90.7445V7.896ZM89.6245 27.448H116.441V30.872H89.6245V27.448ZM100.857 23.544H105.081V28.792H100.857V23.544ZM102.937 12.568C109.113 12.568 112.985 14.712 112.985 18.36C112.985 22.008 109.113 24.152 102.937 24.152C96.7605 24.152 92.8885 22.008 92.8885 18.36C92.8885 14.712 96.7605 12.568 102.937 12.568ZM102.937 15.864C99.2245 15.864 97.2405 16.664 97.2405 18.36C97.2405 20.056 99.2245 20.824 102.937 20.824C106.649 20.824 108.633 20.056 108.633 18.36C108.633 16.664 106.649 15.864 102.937 15.864ZM100.857 4.536H105.081V10.008H100.857V4.536ZM125.686 6.488H129.142V10.808C129.142 18.136 126.582 25.016 120.982 27.768L118.422 24.344C123.414 22.008 125.686 16.312 125.686 10.808V6.488ZM126.55 6.488H129.942V10.808C129.942 16.12 132.054 21.528 136.79 23.832L134.23 27.224C128.886 24.504 126.55 17.912 126.55 10.808V6.488ZM137.974 4.216H142.262V33.848H137.974V4.216ZM141.302 15.608H146.55V19.16H141.302V15.608ZM167.412 4.184H171.7V33.816H167.412V4.184ZM170.58 15.512H175.796V19H170.58V15.512ZM159.636 7.256H163.796C163.796 16.152 160.404 23.768 150.548 28.728L148.18 25.496C155.956 21.464 159.636 16.024 159.636 7.992V7.256ZM149.812 7.256H161.812V10.68H149.812V7.256ZM8.48 46.256H12V48.112C12 53.712 9.28 58.768 3.584 60.592L1.408 57.296C6.336 55.696 8.48 51.824 8.48 48.112V46.256ZM9.344 46.256H12.832V48.112C12.832 51.632 14.944 55.248 19.776 56.784L17.6 60.08C12.032 58.32 9.344 53.456 9.344 48.112V46.256ZM21.632 43.216H25.92V61.072H21.632V43.216ZM5.696 62.384H25.92V72.848H21.632V65.776H5.696V62.384ZM2.528 44.944H18.656V48.304H2.528V44.944ZM46.7495 49.84H52.3815V53.264H46.7495V49.84ZM51.2615 43.216H55.5175V59.408H51.2615V43.216ZM35.8375 60.624H40.0615V63.312H51.2935V60.624H55.5175V72.528H35.8375V60.624ZM40.0615 66.608V69.136H51.2935V66.608H40.0615ZM37.5655 45.488H41.0215V47.376C41.0215 52.944 38.3975 58.096 32.7015 59.984L30.5575 56.592C35.4535 54.992 37.5655 51.12 37.5655 47.376V45.488ZM38.4615 45.488H41.8855V47.376C41.8855 50.832 43.9015 54.512 48.5735 56.08L46.4935 59.376C40.9895 57.552 38.4615 52.656 38.4615 47.376V45.488ZM31.7095 44.56H47.6455V47.952H31.7095V44.56ZM74.2173 45.488H77.6733V49.808C77.6733 57.136 75.1133 64.016 69.5133 66.768L66.9533 63.344C71.9453 61.008 74.2173 55.312 74.2173 49.808V45.488ZM75.0813 45.488H78.4733V49.808C78.4733 55.12 80.5853 60.528 85.3213 62.832L82.7613 66.224C77.4173 63.504 75.0813 56.912 75.0813 49.808V45.488ZM86.5053 43.216H90.7933V72.848H86.5053V43.216ZM89.8333 54.608H95.0813V58.16H89.8333V54.608ZM117.543 43.216H121.799V64.88H117.543V43.216ZM112.423 51.824H118.151V55.28H112.423V51.824ZM108.199 45.424H112.679C112.679 53.424 107.719 59.28 99.1108 62L97.3508 58.608C104.167 56.464 108.199 52.368 108.199 47.344V45.424ZM98.8868 45.424H110.919V48.848H98.8868V45.424ZM102.375 68.944H122.535V72.336H102.375V68.944ZM102.375 62.736H106.663V70.896H102.375V62.736ZM139.844 43.632C146.596 43.632 150.564 45.424 150.564 48.688C150.564 51.952 146.596 53.744 139.844 53.744C133.06 53.744 129.124 51.952 129.124 48.688C129.124 45.424 133.06 43.632 139.844 43.632ZM139.844 46.736C135.556 46.736 133.54 47.376 133.54 48.688C133.54 50.064 135.556 50.64 139.844 50.64C144.132 50.64 146.148 50.064 146.148 48.688C146.148 47.376 144.132 46.736 139.844 46.736ZM126.436 55.12H153.22V58.48H126.436V55.12ZM129.508 60.144H149.988V67.76H133.732V70.384H129.54V64.816H145.796V63.312H129.508V60.144ZM129.54 69.456H150.756V72.656H129.54V69.456ZM164.592 45.36H177.264V48.784H164.592V45.36ZM168.24 52.272H172.464V59.696H168.24V52.272ZM175.6 45.36H179.792V47.216C179.792 49.296 179.792 52.24 179.088 55.92L174.96 55.472C175.6 51.824 175.6 49.264 175.6 47.216V45.36ZM182.672 43.216H186.96V65.392H182.672V43.216ZM185.264 52.24H190.48V55.728H185.264V52.24ZM167.184 68.944H187.888V72.336H167.184V68.944ZM167.184 63.408H171.44V70H167.184V63.408ZM163.248 61.424L162.864 58.064C167.984 58.064 175.12 57.968 181.072 57.136L181.328 60.144C175.216 61.296 168.336 61.424 163.248 61.424ZM213.134 43.184H217.39V72.912H213.134V43.184ZM194.318 62.544H196.942C202.19 62.544 206.382 62.352 211.086 61.552L211.502 64.976C206.702 65.84 202.35 66 196.942 66H194.318V62.544ZM194.286 45.712H208.27V57.168H198.638V63.824H194.318V53.808H203.918V49.104H194.286V45.712ZM241.227 43.216H245.483V60.56H241.227V43.216ZM243.787 50.32H249.419V53.84H243.787V50.32ZM226.219 61.712H230.411V63.952H241.259V61.712H245.483V72.528H226.219V61.712ZM230.411 67.152V69.2H241.259V67.152H230.411ZM222.155 45.776H239.595V49.136H222.155V45.776ZM230.891 49.936C235.179 49.936 238.155 52.048 238.155 55.184C238.155 58.32 235.179 60.432 230.891 60.432C226.571 60.432 223.595 58.32 223.595 55.184C223.595 52.048 226.571 49.936 230.891 49.936ZM230.891 53.04C228.971 53.04 227.691 53.808 227.691 55.184C227.691 56.592 228.971 57.328 230.891 57.328C232.779 57.328 234.091 56.592 234.091 55.184C234.091 53.808 232.779 53.04 230.891 53.04ZM228.747 42.992H233.003V47.664H228.747V42.992ZM272.105 43.216H276.361V72.848H272.105V43.216ZM253.161 46.032H257.385V64.432H253.161V46.032ZM253.161 61.936H255.785C260.105 61.936 264.905 61.616 269.801 60.656L270.281 64.176C265.193 65.232 260.297 65.552 255.785 65.552H253.161V61.936ZM299.974 43.184H304.262V72.912H299.974V43.184ZM303.302 54.16H308.55V57.648H303.302V54.16ZM282.182 62.256H284.678C289.67 62.256 293.606 62.096 297.958 61.328L298.374 64.848C293.894 65.648 289.83 65.776 284.678 65.776H282.182V62.256ZM282.182 45.936H296.006V49.36H286.406V63.952H282.182V45.936ZM313.949 70.2955C313.199 70.2955 312.555 70.0303 312.017 69.5C311.487 68.9621 311.222 68.3182 311.222 67.5682C311.222 66.8258 311.487 66.1894 312.017 65.6591C312.555 65.1288 313.199 64.8636 313.949 64.8636C314.676 64.8636 315.313 65.1288 315.858 65.6591C316.403 66.1894 316.676 66.8258 316.676 67.5682C316.676 68.0682 316.547 68.5265 316.29 68.9432C316.04 69.3523 315.71 69.6818 315.301 69.9318C314.892 70.1742 314.441 70.2955 313.949 70.2955Z" fill="black"/>
<rect y="25" width="146" height="11" fill="#172958" fill-opacity="0.3"/>
<path d="M0.7 106.516H12.166V107.482H0.7V106.516ZM5.824 103.24H6.986V106.782H5.824V103.24ZM2.03 97.486H10.766V103.45H2.03V97.486ZM9.646 98.424H3.164V102.512H9.646V98.424ZM13.5789 102.82H25.0169V103.772H13.5789V102.82ZM15.0209 100.482H23.7009V101.448H15.0209V100.482ZM15.0209 96.982H23.5889V97.92H16.1829V100.804H15.0209V96.982ZM15.0349 107.846H23.8129V108.812H15.0349V107.846ZM15.0349 105.102H16.1969V108.098H15.0349V105.102ZM39.1927 96.436H40.3127V109.092H39.1927V96.436ZM37.1487 101.518H39.5707V102.47H37.1487V101.518ZM33.8727 98.06H34.9927C34.9927 101.322 33.8727 104.346 30.2607 106.376L29.5747 105.55C32.7527 103.772 33.8727 101.21 33.8727 98.284V98.06ZM30.0647 98.06H34.2647V99.026H30.0647V98.06ZM36.3787 96.772H37.4847V108.476H36.3787V96.772ZM51.6656 96.45H52.8416V105.69H51.6656V96.45ZM44.7076 107.86H53.2196V108.812H44.7076V107.86ZM44.7076 104.738H45.8556V108.182H44.7076V104.738ZM46.0516 97.318C47.9416 97.318 49.3416 98.606 49.3416 100.44C49.3416 102.26 47.9416 103.562 46.0516 103.562C44.1616 103.562 42.7476 102.26 42.7476 100.44C42.7476 98.606 44.1616 97.318 46.0516 97.318ZM46.0516 98.326C44.8196 98.326 43.8816 99.194 43.8816 100.44C43.8816 101.672 44.8196 102.54 46.0516 102.54C47.2836 102.54 48.2216 101.672 48.2216 100.44C48.2216 99.194 47.2836 98.326 46.0516 98.326ZM58.9445 104.024H60.1205V106.11H58.9445V104.024ZM64.4885 96.436H65.6505V109.092H64.4885V96.436ZM55.5705 106.684L55.4165 105.718C57.8105 105.704 60.9605 105.676 63.6905 105.326L63.7745 106.18C60.9605 106.656 57.9085 106.684 55.5705 106.684ZM55.6825 97.976H63.3685V98.914H55.6825V97.976ZM59.5185 99.642C61.3385 99.642 62.5705 100.566 62.5705 101.98C62.5705 103.408 61.3385 104.318 59.5185 104.318C57.7125 104.318 56.4805 103.408 56.4805 101.98C56.4805 100.566 57.7125 99.642 59.5185 99.642ZM59.5185 100.538C58.3845 100.538 57.5865 101.112 57.5865 101.98C57.5865 102.848 58.3845 103.422 59.5185 103.422C60.6665 103.422 61.4645 102.848 61.4645 101.98C61.4645 101.112 60.6665 100.538 59.5185 100.538ZM58.9445 96.436H60.1065V98.494H58.9445V96.436ZM70.8714 97.22H71.7954V98.914C71.7954 100.804 70.7034 102.792 68.8414 103.618L68.2114 102.708C69.8774 101.98 70.8714 100.342 70.8714 98.914V97.22ZM71.0534 97.22H71.9774V98.914C71.9774 100.314 72.9294 101.742 74.5534 102.372L73.9234 103.254C72.1034 102.526 71.0534 100.776 71.0534 98.914V97.22ZM77.7734 96.45H78.8794V104.248H77.7734V96.45ZM75.7574 99.824H78.1514V100.776H75.7574V99.824ZM75.0574 96.688H76.1634V103.842H75.0574V96.688ZM74.7214 104.528C77.3254 104.528 78.9494 105.368 78.9494 106.81C78.9494 108.238 77.3254 109.064 74.7214 109.064C72.1034 109.064 70.5074 108.238 70.5074 106.81C70.5074 105.368 72.1034 104.528 74.7214 104.528ZM74.7214 105.438C72.8174 105.438 71.6414 105.942 71.6414 106.81C71.6414 107.664 72.8174 108.168 74.7214 108.168C76.6254 108.168 77.7874 107.664 77.7874 106.81C77.7874 105.942 76.6254 105.438 74.7214 105.438ZM81.2583 97.794H88.3003V98.746H81.2583V97.794ZM81.0763 105.97L80.9363 104.976C83.2183 104.976 86.2843 104.948 88.8883 104.626L88.9583 105.494C86.3123 105.928 83.3023 105.97 81.0763 105.97ZM82.6163 98.508H83.7503V105.242H82.6163V98.508ZM85.8083 98.508H86.9423V105.242H85.8083V98.508ZM89.6583 96.436H90.8343V109.092H89.6583V96.436ZM90.5543 101.49H92.9063V102.47H90.5543V101.49ZM97.0912 97.206H98.0432V98.76C98.0432 101.238 96.6712 103.212 94.5432 104.038L93.9272 103.114C95.8592 102.428 97.0912 100.72 97.0912 98.76V97.206ZM97.2872 97.206H98.2392V98.802C98.2392 100.524 99.4992 102.148 101.347 102.806L100.773 103.716C98.6872 102.96 97.2872 101.028 97.2872 98.802V97.206ZM102.635 96.422H103.797V105.774H102.635V96.422ZM103.433 100.314H105.673V101.28H103.433V100.314ZM95.9432 107.86H104.357V108.812H95.9432V107.86ZM95.9432 104.892H97.1052V108.322H95.9432V104.892ZM113.087 97.528H114.039V99.796C114.039 102.596 112.527 105.326 110.525 106.39L109.811 105.466C111.645 104.542 113.087 102.106 113.087 99.796V97.528ZM113.297 97.528H114.235V99.796C114.235 102.022 115.649 104.332 117.441 105.228L116.727 106.152C114.767 105.102 113.297 102.512 113.297 99.796V97.528ZM118.547 96.436H119.723V109.092H118.547V96.436ZM119.443 101.56H121.795V102.54H119.443V101.56ZM132.112 96.436H133.274V105.788H132.112V96.436ZM129.382 100.342H132.336V101.308H129.382V100.342ZM128.206 97.416H129.424C129.424 100.678 127.128 103.156 123.558 104.346L123.054 103.408C126.148 102.372 128.206 100.384 128.206 97.878V97.416ZM123.684 97.416H128.962V98.368H123.684V97.416ZM125.28 107.86H133.596V108.812H125.28V107.86ZM125.28 104.85H126.442V108.336H125.28V104.85ZM135.737 103.086H147.175V104.038H135.737V103.086ZM137.221 107.86H145.915V108.812H137.221V107.86ZM137.221 105.144H138.383V108.154H137.221V105.144ZM141.463 96.856C144.165 96.856 145.915 97.808 145.915 99.39C145.915 100.958 144.165 101.91 141.463 101.91C138.747 101.91 137.011 100.958 137.011 99.39C137.011 97.808 138.747 96.856 141.463 96.856ZM141.463 97.808C139.475 97.808 138.201 98.396 138.201 99.39C138.201 100.384 139.475 100.972 141.463 100.972C143.451 100.972 144.725 100.384 144.725 99.39C144.725 98.396 143.451 97.808 141.463 97.808ZM157.165 97.248H158.383C158.383 100.468 156.073 102.736 152.349 103.73L151.901 102.806C155.191 101.938 157.165 100.104 157.165 97.766V97.248ZM152.559 97.248H157.837V98.186H152.559V97.248ZM160.959 96.436H162.135V103.576H160.959V96.436ZM153.945 104.192H162.135V108.924H153.945V104.192ZM160.987 105.13H155.093V107.972H160.987V105.13ZM165.129 104.99H165.955C167.957 104.99 169.147 104.948 170.561 104.668L170.687 105.634C169.217 105.928 167.985 105.97 165.955 105.97H165.129V104.99ZM165.129 97.878H170.113V98.83H166.235V105.354H165.129V97.878ZM165.899 101.224H169.917V102.162H165.899V101.224ZM174.271 96.436H175.391V109.092H174.271V96.436ZM172.269 101.504H174.691V102.47H172.269V101.504ZM171.485 96.702H172.591V108.462H171.485V96.702ZM180.332 100.72H181.48V103.114H180.332V100.72ZM184.98 100.72H186.128V103.114H184.98V100.72ZM177.504 102.694H188.942V103.632H177.504V102.694ZM183.216 104.584C185.932 104.584 187.556 105.382 187.556 106.824C187.556 108.266 185.932 109.078 183.216 109.078C180.5 109.078 178.876 108.266 178.876 106.824C178.876 105.382 180.5 104.584 183.216 104.584ZM183.216 105.48C181.242 105.48 180.052 105.97 180.052 106.824C180.052 107.692 181.242 108.168 183.216 108.168C185.204 108.168 186.38 107.692 186.38 106.824C186.38 105.97 185.204 105.48 183.216 105.48ZM183.23 96.66C185.974 96.66 187.682 97.542 187.682 99.026C187.682 100.496 185.974 101.364 183.23 101.364C180.472 101.364 178.778 100.496 178.778 99.026C178.778 97.542 180.472 96.66 183.23 96.66ZM183.23 97.57C181.214 97.57 179.968 98.102 179.968 99.026C179.968 99.936 181.214 100.468 183.23 100.468C185.246 100.468 186.492 99.936 186.492 99.026C186.492 98.102 185.246 97.57 183.23 97.57ZM196.431 98.76H200.085V99.698H196.431V98.76ZM196.431 101.49H200.113V102.428H196.431V101.49ZM199.637 96.45H200.799V105.816H199.637V96.45ZM192.665 107.86H201.107V108.812H192.665V107.86ZM192.665 104.906H193.827V108.35H192.665V104.906ZM191.013 97.276H192.161V99.516H195.591V97.276H196.725V103.66H191.013V97.276ZM192.161 100.426V102.708H195.591V100.426H192.161ZM203.836 98.284H214.112V99.236H203.836V98.284ZM203.276 106.656H214.742V107.622H203.276V106.656ZM208.414 104.654H209.562V107.034H208.414V104.654ZM208.974 100.09C211.536 100.09 213.118 100.972 213.118 102.498C213.118 104.024 211.536 104.906 208.974 104.906C206.426 104.906 204.844 104.024 204.844 102.498C204.844 100.972 206.426 100.09 208.974 100.09ZM208.974 101C207.14 101 206.006 101.56 206.006 102.498C206.006 103.436 207.14 103.982 208.974 103.982C210.822 103.982 211.942 103.436 211.942 102.498C211.942 101.56 210.822 101 208.974 101ZM208.414 96.646H209.562V98.872H208.414V96.646ZM219.249 97.528H220.201V99.796C220.201 102.596 218.689 105.326 216.687 106.39L215.973 105.466C217.807 104.542 219.249 102.106 219.249 99.796V97.528ZM219.459 97.528H220.397V99.796C220.397 102.022 221.811 104.332 223.603 105.228L222.889 106.152C220.929 105.102 219.459 102.512 219.459 99.796V97.528ZM224.709 96.436H225.885V109.092H224.709V96.436ZM225.605 101.56H227.957V102.54H225.605V101.56ZM237.588 96.422H238.764V109.092H237.588V96.422ZM238.442 101.56H240.78V102.526H238.442V101.56ZM234.354 97.794H235.488C235.488 101.392 233.836 104.64 229.748 106.698L229.104 105.802C232.604 104.024 234.354 101.322 234.354 97.976V97.794ZM229.692 97.794H234.956V98.746H229.692V97.794ZM245.716 97.416H251.316V98.368H245.716V97.416ZM247.62 100.244H248.768V103.408H247.62V100.244ZM250.854 97.416H252.002V98.088C252.002 98.914 252.002 100.174 251.666 101.84L250.532 101.714C250.854 100.048 250.854 98.9 250.854 98.088V97.416ZM253.724 96.436H254.886V105.97H253.724V96.436ZM254.354 100.552H256.692V101.518H254.354V100.552ZM246.892 107.86H255.292V108.812H246.892V107.86ZM246.892 105.088H248.04V108.154H246.892V105.088ZM245.072 103.954L244.946 103.002C247.2 103.002 250.308 102.946 252.87 102.596L252.954 103.436C250.322 103.898 247.298 103.954 245.072 103.954ZM267.135 96.422H268.297V109.106H267.135V96.422ZM258.651 105.088H259.701C261.815 105.088 263.705 105.004 265.945 104.64L266.071 105.592C263.775 105.97 261.871 106.054 259.701 106.054H258.651V105.088ZM258.623 97.612H264.475V102.134H259.813V105.452H258.651V101.182H263.299V98.564H258.623V97.612ZM279.37 96.436H280.532V109.092H279.37V96.436ZM280.252 101.63H282.604V102.61H280.252V101.63ZM270.732 98.452H278.194V99.404H270.732V98.452ZM274.512 100.454C276.304 100.454 277.592 101.658 277.592 103.366C277.592 105.074 276.304 106.278 274.512 106.278C272.734 106.278 271.432 105.074 271.432 103.366C271.432 101.658 272.734 100.454 274.512 100.454ZM274.512 101.42C273.364 101.42 272.538 102.218 272.538 103.366C272.538 104.5 273.364 105.312 274.512 105.312C275.66 105.312 276.486 104.5 276.486 103.366C276.486 102.218 275.66 101.42 274.512 101.42ZM273.91 96.59H275.072V98.886H273.91V96.59ZM284.884 97.696H293.032V98.662H284.884V97.696ZM283.68 106.362H295.118V107.328H283.68V106.362ZM288.118 101.84H289.28V106.838H288.118V101.84ZM292.598 97.696H293.746V98.956C293.746 100.524 293.746 102.26 293.284 104.822L292.122 104.668C292.598 102.246 292.598 100.468 292.598 98.956V97.696ZM9.954 116.422H11.102V129.106H9.954V116.422ZM7.224 121.504H10.29V122.47H7.224V121.504ZM3.92 119.446H4.844V120.524C4.844 123.198 3.374 125.662 1.372 126.656L0.714 125.76C2.576 124.864 3.92 122.708 3.92 120.524V119.446ZM4.144 119.446H5.054V120.524C5.054 122.61 6.44 124.668 8.302 125.522L7.658 126.418C5.628 125.48 4.144 123.114 4.144 120.524V119.446ZM1.064 118.634H7.868V119.572H1.064V118.634ZM3.906 116.66H5.068V119.152H3.906V116.66ZM22.7909 116.422H23.9529V129.106H22.7909V116.422ZM14.3069 125.088H15.3569C17.4709 125.088 19.3609 125.004 21.6009 124.64L21.7269 125.592C19.4309 125.97 17.5269 126.054 15.3569 126.054H14.3069V125.088ZM14.2789 117.612H20.1309V122.134H15.4689V125.452H14.3069V121.182H18.9549V118.564H14.2789V117.612ZM35.0258 116.436H36.1878V129.092H35.0258V116.436ZM35.9078 121.63H38.2598V122.61H35.9078V121.63ZM26.3878 118.452H33.8498V119.404H26.3878V118.452ZM30.1678 120.454C31.9598 120.454 33.2478 121.658 33.2478 123.366C33.2478 125.074 31.9598 126.278 30.1678 126.278C28.3898 126.278 27.0878 125.074 27.0878 123.366C27.0878 121.658 28.3898 120.454 30.1678 120.454ZM30.1678 121.42C29.0198 121.42 28.1938 122.218 28.1938 123.366C28.1938 124.5 29.0198 125.312 30.1678 125.312C31.3158 125.312 32.1418 124.5 32.1418 123.366C32.1418 122.218 31.3158 121.42 30.1678 121.42ZM29.5658 116.59H30.7278V118.886H29.5658V116.59ZM40.5407 117.696H48.6887V118.662H40.5407V117.696ZM39.3367 126.362H50.7747V127.328H39.3367V126.362ZM43.7747 121.84H44.9367V126.838H43.7747V121.84ZM48.2547 117.696H49.4027V118.956C49.4027 120.524 49.4027 122.26 48.9407 124.822L47.7787 124.668C48.2547 122.246 48.2547 120.468 48.2547 118.956V117.696ZM58.4965 124.22H59.3925V124.906C59.3925 126.558 58.3565 128.224 56.5365 128.924L55.9485 128.056C57.5445 127.482 58.4965 126.124 58.4965 124.906V124.22ZM58.7485 124.22H59.6165V124.906C59.6165 126.18 60.3725 127.538 61.8845 128.154L61.3945 129.036C59.5745 128.322 58.7485 126.586 58.7485 124.906V124.22ZM63.1725 124.22H64.0405V124.906C64.0405 126.39 63.2005 128.266 61.3945 129.036L60.9045 128.154C62.4025 127.468 63.1725 125.998 63.1725 124.906V124.22ZM63.4105 124.22H64.3065V124.906C64.3065 126.208 65.2445 127.51 66.8545 128.056L66.2665 128.924C64.4185 128.252 63.4105 126.656 63.4105 124.906V124.22ZM64.5445 116.45H65.7205V123.674H64.5445V116.45ZM58.9305 117.178C60.8485 117.178 62.2205 118.382 62.2205 120.132C62.2205 121.882 60.8485 123.072 58.9305 123.072C57.0125 123.072 55.6265 121.882 55.6265 120.132C55.6265 118.382 57.0125 117.178 58.9305 117.178ZM58.9305 118.144C57.6705 118.144 56.7605 118.956 56.7605 120.132C56.7605 121.308 57.6705 122.106 58.9305 122.106C60.1905 122.106 61.1005 121.308 61.1005 120.132C61.1005 118.956 60.1905 118.144 58.9305 118.144ZM69.6674 124.024H70.8154V125.494H77.0034V124.024H78.1654V128.924H69.6674V124.024ZM70.8154 126.39V127.986H77.0034V126.39H70.8154ZM68.2114 122.204H79.6494V123.142H68.2114V122.204ZM73.3494 116.576H74.3434V117.136C74.3434 119.334 71.8934 120.916 69.2894 121.308L68.8694 120.398C71.1514 120.09 73.3494 118.732 73.3494 117.136V116.576ZM73.5314 116.576H74.5254V117.136C74.5254 118.704 76.7514 120.09 79.0054 120.398L78.5714 121.308C75.9954 120.916 73.5314 119.306 73.5314 117.136V116.576ZM90.3023 116.436H91.4643V129.092H90.3023V116.436ZM81.9023 117.668H83.0503V125.508H81.9023V117.668ZM81.9023 124.822H82.9383C84.8563 124.822 86.8583 124.682 89.0003 124.234L89.1403 125.228C86.9423 125.676 84.9403 125.83 82.9383 125.83H81.9023V124.822ZM102.537 116.422H103.713V129.106H102.537V116.422ZM103.433 121.42H105.785V122.4H103.433V121.42ZM94.5152 124.976H95.5092C97.8472 124.976 99.4852 124.892 101.375 124.542L101.501 125.522C99.5552 125.886 97.8892 125.956 95.5092 125.956H94.5152V124.976ZM94.5152 117.654H100.395V118.606H95.6632V125.41H94.5152V117.654ZM108.094 128.196C107.59 128.196 107.184 127.79 107.184 127.216C107.184 126.628 107.59 126.236 108.094 126.236C108.612 126.236 109.032 126.628 109.032 127.216C109.032 127.79 108.612 128.196 108.094 128.196Z" fill="#474747"/>
</svg>
